<svg width="26" height="31" viewBox="0 0 26 31" fill="none" xmlns="http://www.w3.org/2000/svg">
<g clip-path="url(#clip0_48_109)">
<path d="M3.74783 4.25217C8.85766 -0.857663 17.1423 -0.857663 22.2522 4.25217C27.362 9.362 27.362 17.6467 22.2522 22.7565L15.056 29.9526C13.9205 31.0882 12.0795 31.0882 10.944 29.9526L3.74783 22.7565C-1.362 17.6467 -1.362 9.362 3.74783 4.25217Z" fill="#6449FA"/>
<path d="M15.9077 9.14282H14.2115L13.9692 9.62743H12.0308L11.7885 9.14282H10.0923C9.70675 9.14282 9.33696 9.29599 9.06431 9.56864C8.79166 9.84129 8.63849 10.2111 8.63849 10.5967V18.5928C8.63849 18.9784 8.79166 19.3481 9.06431 19.6208C9.33696 19.8934 9.70675 20.0466 10.0923 20.0466V20.2889C10.0923 20.4174 10.1434 20.5407 10.2343 20.6316C10.3251 20.7225 10.4484 20.7735 10.5769 20.7735C10.7055 20.7735 10.8287 20.7225 10.9196 20.6316C11.0105 20.5407 11.0616 20.4174 11.0616 20.2889V20.0466H14.9385V20.2889C14.9385 20.4174 14.9895 20.5407 15.0804 20.6316C15.1713 20.7225 15.2945 20.7735 15.4231 20.7735C15.5516 20.7735 15.6749 20.7225 15.7657 20.6316C15.8566 20.5407 15.9077 20.4174 15.9077 20.2889V20.0466C16.2933 20.0466 16.6631 19.8934 16.9357 19.6208C17.2083 19.3481 17.3615 18.9784 17.3615 18.5928V10.5967C17.3615 10.2111 17.2083 9.84129 16.9357 9.56864C16.6631 9.29599 16.2933 9.14282 15.9077 9.14282ZM11.0616 17.8658C11.0616 17.9944 11.0105 18.1176 10.9196 18.2085C10.8287 18.2994 10.7055 18.3505 10.5769 18.3505C10.4484 18.3505 10.3251 18.2994 10.2343 18.2085C10.1434 18.1176 10.0923 17.9944 10.0923 17.8658V11.8082C10.0923 11.6797 10.1434 11.5564 10.2343 11.4655C10.3251 11.3746 10.4484 11.3236 10.5769 11.3236C10.7055 11.3236 10.8287 11.3746 10.9196 11.4655C11.0105 11.5564 11.0616 11.6797 11.0616 11.8082V17.8658ZM13.4846 17.8658C13.4846 17.9944 13.4336 18.1176 13.3427 18.2085C13.2518 18.2994 13.1285 18.3505 13 18.3505C12.8715 18.3505 12.7482 18.2994 12.6573 18.2085C12.5664 18.1176 12.5154 17.9944 12.5154 17.8658V11.8082C12.5154 11.6797 12.5664 11.5564 12.6573 11.4655C12.7482 11.3746 12.8715 11.3236 13 11.3236C13.1285 11.3236 13.2518 11.3746 13.3427 11.4655C13.4336 11.5564 13.4846 11.6797 13.4846 11.8082V17.8658ZM15.9077 17.8658C15.9077 17.9944 15.8566 18.1176 15.7657 18.2085C15.6749 18.2994 15.5516 18.3505 15.4231 18.3505C15.2945 18.3505 15.1713 18.2994 15.0804 18.2085C14.9895 18.1176 14.9385 17.9944 14.9385 17.8658V11.8082C14.9385 11.6797 14.9895 11.5564 15.0804 11.4655C15.1713 11.3746 15.2945 11.3236 15.4231 11.3236C15.5516 11.3236 15.6749 11.3746 15.7657 11.4655C15.8566 11.5564 15.9077 11.6797 15.9077 11.8082V17.8658ZM11.3039 7.44668H14.6961V8.65821H15.1808V6.71976C15.1808 6.59123 15.1297 6.46797 15.0388 6.37709C14.9479 6.2862 14.8247 6.23515 14.6961 6.23515H11.3039C11.1753 6.23515 11.0521 6.2862 10.9612 6.37709C10.8703 6.46797 10.8192 6.59123 10.8192 6.71976V8.65821H11.3039V7.44668Z" fill="white"/>
</g>
<defs>
<clipPath id="clip0_48_109">
<rect width="26" height="31" fill="white"/>
</clipPath>
</defs>
</svg>
