<svg width="175" height="254" viewBox="0 0 175 254" fill="none" xmlns="http://www.w3.org/2000/svg">
<rect width="175" height="254" rx="30" fill="white"/>
<path d="M81.9237 31.394C84.8724 28.0128 90.1276 28.0128 93.0763 31.394V31.394C95.2402 33.8751 98.783 34.6281 101.769 33.2416V33.2416C105.838 31.3522 110.639 33.4897 111.957 37.7779V37.7779C112.925 40.9245 115.855 43.0535 119.147 43.0013V43.0013C123.633 42.9303 127.149 46.8356 126.609 51.2894V51.2894C126.214 54.5576 128.025 57.6943 131.053 58.9855V58.9855C135.18 60.7451 136.804 65.7431 134.499 69.5924V69.5924C132.808 72.417 133.187 76.0191 135.428 78.4304V78.4304C138.482 81.7164 137.933 86.9428 134.262 89.522V89.522C131.569 91.4146 130.449 94.8593 131.516 97.9737V97.9737C132.97 102.218 130.342 106.769 125.94 107.632V107.632C122.709 108.266 120.286 110.957 119.993 114.236V114.236C119.595 118.705 115.344 121.794 110.971 120.792V120.792C107.762 120.056 104.453 121.53 102.852 124.406V124.406C100.671 128.327 95.5307 129.419 91.9434 126.725V126.725C89.311 124.748 85.689 124.748 83.0566 126.725V126.725C79.4693 129.419 74.329 128.327 72.1477 124.406V124.406C70.547 121.53 67.2382 120.056 64.0292 120.792V120.792C59.6563 121.794 55.4048 118.705 55.0065 114.236V114.236C54.7143 110.957 52.2908 108.266 49.0602 107.632V107.632C44.6576 106.769 42.03 102.218 43.4838 97.9737V97.9737C44.5506 94.8593 43.4313 91.4146 40.7377 89.522V89.522C37.0668 86.9428 36.5175 81.7164 39.5719 78.4304V78.4304C41.8132 76.0191 42.1918 72.417 40.5008 69.5924V69.5924C38.1964 65.7431 39.8203 60.7451 43.9472 58.9855V58.9855C46.9755 57.6943 48.7865 54.5576 48.3905 51.2894V51.2894C47.851 46.8356 51.3674 42.9303 55.8531 43.0013V43.0013C59.1448 43.0535 62.0751 40.9245 63.0426 37.7778V37.7778C64.3612 33.4896 69.1621 31.3522 73.2311 33.2416V33.2416C76.217 34.6281 79.7598 33.8751 81.9237 31.394V31.394Z" fill="#6449FA"/>
<path d="M90.9225 52.0092C90.0365 51.9164 89.2325 52.5269 89.1239 53.408C89.0138 54.2923 89.64 55.0965 90.5227 55.2066C92.71 55.4788 94.8469 56.2532 96.8753 57.1093C97.7043 57.4537 98.643 57.0652 98.987 56.2501C99.3316 55.4288 98.9476 54.4845 98.1278 54.1384C95.8256 53.169 93.4008 52.3176 90.9225 52.0092Z" fill="white"/>
<path d="M109.016 65.0953C109.725 64.5572 109.864 63.5453 109.326 62.8372C107.816 60.8498 106.043 59.0764 104.056 57.5673C103.346 57.0323 102.337 57.1661 101.797 57.8773C101.259 58.5854 101.398 59.5973 102.107 60.1354C103.862 61.4667 105.426 63.0308 106.757 64.7853C107.297 65.4965 108.308 65.631 109.016 65.0953Z" fill="white"/>
<path d="M110.643 67.9056C109.823 68.2518 109.439 69.1959 109.784 70.0173C110.64 72.0456 111.518 74.2899 111.79 76.4772C111.896 77.3319 112.669 77.9832 113.589 77.8761C114.472 77.766 115.098 76.9618 114.988 76.0775C114.679 73.5992 113.724 71.0668 112.755 68.7647C112.408 67.9449 111.463 67.5657 110.643 67.9056Z" fill="white"/>
<path d="M76.8721 54.1384C76.0522 54.4846 75.6683 55.4288 76.0129 56.2501C76.3575 57.067 77.2976 57.4529 78.1246 57.1093C80.153 56.2532 82.2898 55.4788 84.4771 55.2066C85.3599 55.0965 85.9862 54.2924 85.876 53.4081C85.7659 52.5269 84.9586 51.9163 84.0774 52.0092C81.5991 52.3176 79.1742 53.169 76.8721 54.1384Z" fill="white"/>
<path d="M87.5 107C101.291 107 113.283 96.5873 114.988 82.9225C115.098 82.0397 114.471 81.234 113.589 81.1239C112.701 81.0248 111.899 81.6401 111.79 82.5228C110.286 94.5795 99.6685 103.777 87.5 103.777C74.172 103.777 63.2227 92.8281 63.2227 79.5C63.2227 73.6259 65.5534 67.9092 69.3457 63.5431V64.0766C69.3457 64.9672 70.0664 65.6879 70.957 65.6879C71.8477 65.6879 72.5684 64.9672 72.5684 64.0766V59.5195C72.5684 58.6289 71.8477 57.9082 70.957 57.9082H66.3985C65.5078 57.9082 64.7872 58.6289 64.7872 59.5195C64.7872 60.4102 65.5078 61.1298 66.3985 61.1298H67.1745C62.7112 66.1203 60 72.7059 60 79.5C60 94.6046 72.3954 107 87.5 107Z" fill="white"/>
<path d="M68.0566 79.5001C68.0566 90.1626 76.8375 98.9435 87.5001 98.9435C98.1626 98.9435 106.943 90.1626 106.943 79.5001C106.943 68.8375 98.1626 60.0566 87.5001 60.0566C76.8375 60.0566 68.0566 68.8375 68.0566 79.5001ZM89.1114 73.0547C89.1114 72.1641 89.8321 71.4434 90.7227 71.4434C91.6134 71.4434 92.3341 72.1641 92.3341 73.0547V77.8887H95.5567V73.0547C95.5567 72.1641 96.2774 71.4434 97.1681 71.4434C98.0587 71.4434 98.7794 72.1641 98.7794 73.0547V85.9454C98.7794 86.836 98.0587 87.5567 97.1681 87.5567C96.2774 87.5567 95.5567 86.836 95.5567 85.9454V81.1114H90.7227C89.8321 81.1114 89.1114 80.3907 89.1114 79.5001V73.0547ZM81.0547 74.6661C80.1657 74.6661 79.4434 75.3884 79.4434 76.2774C79.4434 77.168 78.7227 77.8887 77.8321 77.8887C76.9414 77.8887 76.2207 77.168 76.2207 76.2774C76.2207 73.6118 78.3892 71.4434 81.0547 71.4434C83.7203 71.4434 85.8887 73.6118 85.8887 76.2774C85.8887 79.5001 83.7439 81.1083 82.0209 82.4001C81.0663 83.1165 80.3866 83.6895 79.9549 84.3341H84.2774C85.168 84.3341 85.8887 85.0548 85.8887 85.9454C85.8887 86.836 85.168 87.5567 84.2774 87.5567H77.8321C76.9414 87.5567 76.2207 86.836 76.2207 85.9454C76.2207 82.7227 78.3655 81.1145 80.0886 79.8227C81.7346 78.5874 82.6661 77.8132 82.6661 76.2774C82.6661 75.3883 81.9439 74.6661 81.0547 74.6661Z" fill="white"/>
<path d="M44.06 182.52C44.9667 181.8 45.38 181.467 45.3 181.52C47.9133 179.36 49.9667 177.587 51.46 176.2C52.98 174.813 54.26 173.36 55.3 171.84C56.34 170.32 56.86 168.84 56.86 167.4C56.86 166.307 56.6067 165.453 56.1 164.84C55.5933 164.227 54.8333 163.92 53.82 163.92C52.8067 163.92 52.0067 164.307 51.42 165.08C50.86 165.827 50.58 166.893 50.58 168.28H43.98C44.0333 166.013 44.5133 164.12 45.42 162.6C46.3533 161.08 47.5667 159.96 49.06 159.24C50.58 158.52 52.26 158.16 54.1 158.16C57.2733 158.16 59.66 158.973 61.26 160.6C62.8867 162.227 63.7 164.347 63.7 166.96C63.7 169.813 62.7267 172.467 60.78 174.92C58.8333 177.347 56.3533 179.72 53.34 182.04H64.14V187.6H44.06V182.52ZM67.3116 182.8V177.28L79.9516 159.2H87.5916V176.88H90.8716V182.8H87.5916V188H80.7516V182.8H67.3116ZM81.2316 166.72L74.5116 176.88H81.2316V166.72ZM110.142 150L99.4219 195.48H92.8219L103.542 150H110.142ZM130.987 163.92L120.947 188H113.947L124.107 164.68H111.667V158.84H130.987V163.92Z" fill="#162533"/>
<path d="M39.68 212.08C39.3707 211.429 38.9227 210.928 38.336 210.576C37.7493 210.213 37.0667 210.032 36.288 210.032C35.5093 210.032 34.8053 210.213 34.176 210.576C33.5573 210.928 33.0667 211.44 32.704 212.112C32.352 212.773 32.176 213.541 32.176 214.416C32.176 215.291 32.352 216.059 32.704 216.72C33.0667 217.381 33.5573 217.893 34.176 218.256C34.8053 218.608 35.5093 218.784 36.288 218.784C37.376 218.784 38.272 218.459 38.976 217.808C39.68 217.157 40.0907 216.277 40.208 215.168H35.76V213.984H41.76V215.104C41.6747 216.021 41.3867 216.864 40.896 217.632C40.4053 218.389 39.76 218.992 38.96 219.44C38.16 219.877 37.2693 220.096 36.288 220.096C35.2533 220.096 34.3093 219.856 33.456 219.376C32.6027 218.885 31.9253 218.208 31.424 217.344C30.9333 216.48 30.688 215.504 30.688 214.416C30.688 213.328 30.9333 212.352 31.424 211.488C31.9253 210.613 32.6027 209.936 33.456 209.456C34.3093 208.965 35.2533 208.72 36.288 208.72C37.472 208.72 38.5173 209.013 39.424 209.6C40.3413 210.187 41.008 211.013 41.424 212.08H39.68ZM51.4611 211.232V220H50.0051V218.704C49.7278 219.152 49.3385 219.504 48.8371 219.76C48.3465 220.005 47.8025 220.128 47.2051 220.128C46.5225 220.128 45.9091 219.989 45.3651 219.712C44.8211 219.424 44.3891 218.997 44.0691 218.432C43.7598 217.867 43.6051 217.179 43.6051 216.368V211.232H45.0451V216.176C45.0451 217.04 45.2638 217.707 45.7011 218.176C46.1385 218.635 46.7358 218.864 47.4931 218.864C48.2718 218.864 48.8851 218.624 49.3331 218.144C49.7811 217.664 50.0051 216.965 50.0051 216.048V211.232H51.4611ZM54.6715 209.808C54.3942 209.808 54.1595 209.712 53.9675 209.52C53.7755 209.328 53.6795 209.093 53.6795 208.816C53.6795 208.539 53.7755 208.304 53.9675 208.112C54.1595 207.92 54.3942 207.824 54.6715 207.824C54.9382 207.824 55.1622 207.92 55.3435 208.112C55.5355 208.304 55.6315 208.539 55.6315 208.816C55.6315 209.093 55.5355 209.328 55.3435 209.52C55.1622 209.712 54.9382 209.808 54.6715 209.808ZM55.3755 211.232V220H53.9195V211.232H55.3755ZM57.313 215.584C57.313 214.688 57.4943 213.904 57.857 213.232C58.2197 212.549 58.7157 212.021 59.345 211.648C59.985 211.275 60.6997 211.088 61.489 211.088C62.1717 211.088 62.8063 211.248 63.393 211.568C63.9797 211.877 64.4277 212.288 64.737 212.8V208.16H66.209V220H64.737V218.352C64.449 218.875 64.0223 219.307 63.457 219.648C62.8917 219.979 62.2303 220.144 61.473 220.144C60.6943 220.144 59.985 219.952 59.345 219.568C58.7157 219.184 58.2197 218.645 57.857 217.952C57.4943 217.259 57.313 216.469 57.313 215.584ZM64.737 215.6C64.737 214.939 64.6037 214.363 64.337 213.872C64.0703 213.381 63.7077 213.008 63.249 212.752C62.801 212.485 62.305 212.352 61.761 212.352C61.217 212.352 60.721 212.48 60.273 212.736C59.825 212.992 59.4677 213.365 59.201 213.856C58.9343 214.347 58.801 214.923 58.801 215.584C58.801 216.256 58.9343 216.843 59.201 217.344C59.4677 217.835 59.825 218.213 60.273 218.48C60.721 218.736 61.217 218.864 61.761 218.864C62.305 218.864 62.801 218.736 63.249 218.48C63.7077 218.213 64.0703 217.835 64.337 217.344C64.6037 216.843 64.737 216.261 64.737 215.6ZM76.6695 215.28C76.6695 215.557 76.6535 215.851 76.6215 216.16H69.6135C69.6668 217.024 69.9602 217.701 70.4935 218.192C71.0375 218.672 71.6935 218.912 72.4615 218.912C73.0908 218.912 73.6135 218.768 74.0295 218.48C74.4562 218.181 74.7548 217.787 74.9255 217.296H76.4935C76.2588 218.139 75.7895 218.827 75.0855 219.36C74.3815 219.883 73.5068 220.144 72.4615 220.144C71.6295 220.144 70.8828 219.957 70.2215 219.584C69.5708 219.211 69.0588 218.683 68.6855 218C68.3122 217.307 68.1255 216.507 68.1255 215.6C68.1255 214.693 68.3068 213.899 68.6695 213.216C69.0322 212.533 69.5388 212.011 70.1895 211.648C70.8508 211.275 71.6082 211.088 72.4615 211.088C73.2935 211.088 74.0295 211.269 74.6695 211.632C75.3095 211.995 75.8002 212.496 76.1415 213.136C76.4935 213.765 76.6695 214.48 76.6695 215.28ZM75.1655 214.976C75.1655 214.421 75.0428 213.947 74.7975 213.552C74.5522 213.147 74.2162 212.843 73.7895 212.64C73.3735 212.427 72.9095 212.32 72.3975 212.32C71.6615 212.32 71.0322 212.555 70.5095 213.024C69.9975 213.493 69.7042 214.144 69.6295 214.976H75.1655ZM86.393 220.112C85.657 220.112 84.9957 219.984 84.409 219.728C83.833 219.461 83.3797 219.099 83.049 218.64C82.7183 218.171 82.5477 217.632 82.537 217.024H84.089C84.1423 217.547 84.3557 217.989 84.729 218.352C85.113 218.704 85.6677 218.88 86.393 218.88C87.0863 218.88 87.6303 218.709 88.025 218.368C88.4303 218.016 88.633 217.568 88.633 217.024C88.633 216.597 88.5157 216.251 88.281 215.984C88.0463 215.717 87.753 215.515 87.401 215.376C87.049 215.237 86.5743 215.088 85.977 214.928C85.241 214.736 84.649 214.544 84.201 214.352C83.7637 214.16 83.385 213.861 83.065 213.456C82.7557 213.04 82.601 212.485 82.601 211.792C82.601 211.184 82.7557 210.645 83.065 210.176C83.3743 209.707 83.8063 209.344 84.361 209.088C84.9263 208.832 85.5717 208.704 86.297 208.704C87.3423 208.704 88.1957 208.965 88.857 209.488C89.529 210.011 89.9077 210.704 89.993 211.568H88.393C88.3397 211.141 88.1157 210.768 87.721 210.448C87.3263 210.117 86.8037 209.952 86.153 209.952C85.545 209.952 85.049 210.112 84.665 210.432C84.281 210.741 84.089 211.179 84.089 211.744C84.089 212.149 84.201 212.48 84.425 212.736C84.6597 212.992 84.9423 213.189 85.273 213.328C85.6143 213.456 86.089 213.605 86.697 213.776C87.433 213.979 88.025 214.181 88.473 214.384C88.921 214.576 89.305 214.88 89.625 215.296C89.945 215.701 90.105 216.256 90.105 216.96C90.105 217.504 89.961 218.016 89.673 218.496C89.385 218.976 88.9583 219.365 88.393 219.664C87.8277 219.963 87.161 220.112 86.393 220.112ZM100.024 211.232V220H98.5676V218.704C98.2903 219.152 97.901 219.504 97.3996 219.76C96.909 220.005 96.365 220.128 95.7676 220.128C95.085 220.128 94.4716 219.989 93.9276 219.712C93.3836 219.424 92.9516 218.997 92.6316 218.432C92.3223 217.867 92.1676 217.179 92.1676 216.368V211.232H93.6076V216.176C93.6076 217.04 93.8263 217.707 94.2636 218.176C94.701 218.635 95.2983 218.864 96.0556 218.864C96.8343 218.864 97.4476 218.624 97.8956 218.144C98.3436 217.664 98.5676 216.965 98.5676 216.048V211.232H100.024ZM103.938 212.848C104.226 212.347 104.653 211.931 105.218 211.6C105.794 211.259 106.461 211.088 107.218 211.088C107.997 211.088 108.701 211.275 109.33 211.648C109.97 212.021 110.471 212.549 110.834 213.232C111.197 213.904 111.378 214.688 111.378 215.584C111.378 216.469 111.197 217.259 110.834 217.952C110.471 218.645 109.97 219.184 109.33 219.568C108.701 219.952 107.997 220.144 107.218 220.144C106.471 220.144 105.81 219.979 105.234 219.648C104.669 219.307 104.237 218.885 103.938 218.384V224.16H102.482V211.232H103.938V212.848ZM109.89 215.584C109.89 214.923 109.757 214.347 109.49 213.856C109.223 213.365 108.861 212.992 108.402 212.736C107.954 212.48 107.458 212.352 106.914 212.352C106.381 212.352 105.885 212.485 105.426 212.752C104.978 213.008 104.615 213.387 104.338 213.888C104.071 214.379 103.938 214.949 103.938 215.6C103.938 216.261 104.071 216.843 104.338 217.344C104.615 217.835 104.978 218.213 105.426 218.48C105.885 218.736 106.381 218.864 106.914 218.864C107.458 218.864 107.954 218.736 108.402 218.48C108.861 218.213 109.223 217.835 109.49 217.344C109.757 216.843 109.89 216.256 109.89 215.584ZM114.751 212.848C115.039 212.347 115.465 211.931 116.031 211.6C116.607 211.259 117.273 211.088 118.031 211.088C118.809 211.088 119.513 211.275 120.142 211.648C120.782 212.021 121.284 212.549 121.647 213.232C122.009 213.904 122.191 214.688 122.191 215.584C122.191 216.469 122.009 217.259 121.647 217.952C121.284 218.645 120.782 219.184 120.142 219.568C119.513 219.952 118.809 220.144 118.031 220.144C117.284 220.144 116.623 219.979 116.047 219.648C115.481 219.307 115.049 218.885 114.751 218.384V224.16H113.295V211.232H114.751V212.848ZM120.703 215.584C120.703 214.923 120.569 214.347 120.303 213.856C120.036 213.365 119.673 212.992 119.215 212.736C118.767 212.48 118.271 212.352 117.727 212.352C117.193 212.352 116.697 212.485 116.239 212.752C115.791 213.008 115.428 213.387 115.151 213.888C114.884 214.379 114.751 214.949 114.751 215.6C114.751 216.261 114.884 216.843 115.151 217.344C115.428 217.835 115.791 218.213 116.239 218.48C116.697 218.736 117.193 218.864 117.727 218.864C118.271 218.864 118.767 218.736 119.215 218.48C119.673 218.213 120.036 217.835 120.303 217.344C120.569 216.843 120.703 216.256 120.703 215.584ZM127.931 220.144C127.11 220.144 126.363 219.957 125.691 219.584C125.03 219.211 124.507 218.683 124.123 218C123.75 217.307 123.563 216.507 123.563 215.6C123.563 214.704 123.755 213.915 124.139 213.232C124.534 212.539 125.067 212.011 125.739 211.648C126.411 211.275 127.163 211.088 127.995 211.088C128.827 211.088 129.579 211.275 130.251 211.648C130.923 212.011 131.451 212.533 131.835 213.216C132.23 213.899 132.427 214.693 132.427 215.6C132.427 216.507 132.224 217.307 131.819 218C131.424 218.683 130.886 219.211 130.203 219.584C129.52 219.957 128.763 220.144 127.931 220.144ZM127.931 218.864C128.454 218.864 128.944 218.741 129.403 218.496C129.862 218.251 130.23 217.883 130.507 217.392C130.795 216.901 130.939 216.304 130.939 215.6C130.939 214.896 130.8 214.299 130.523 213.808C130.246 213.317 129.883 212.955 129.435 212.72C128.987 212.475 128.502 212.352 127.979 212.352C127.446 212.352 126.955 212.475 126.507 212.72C126.07 212.955 125.718 213.317 125.451 213.808C125.184 214.299 125.051 214.896 125.051 215.6C125.051 216.315 125.179 216.917 125.435 217.408C125.702 217.899 126.054 218.267 126.491 218.512C126.928 218.747 127.408 218.864 127.931 218.864ZM135.797 212.656C136.053 212.155 136.416 211.765 136.885 211.488C137.365 211.211 137.947 211.072 138.629 211.072V212.576H138.245C136.613 212.576 135.797 213.461 135.797 215.232V220H134.341V211.232H135.797V212.656ZM142.086 212.432V217.6C142.086 218.027 142.177 218.331 142.358 218.512C142.539 218.683 142.854 218.768 143.302 218.768H144.374V220H143.062C142.251 220 141.643 219.813 141.238 219.44C140.833 219.067 140.63 218.453 140.63 217.6V212.432H139.494V211.232H140.63V209.024H142.086V211.232H144.374V212.432H142.086Z" fill="#5E6266"/>
</svg>
