<svg width="187" height="38" viewBox="0 0 187 38" fill="none" xmlns="http://www.w3.org/2000/svg">
<g clip-path="url(#clip0_48_105)">
<g clip-path="url(#clip1_48_105)">
<path d="M5.04089 5.19003C11.0934 -0.862509 20.9065 -0.862509 26.9591 5.19003V5.19003C33.0116 11.2426 33.0116 21.0557 26.9591 27.1082L18.4353 35.632C17.0903 36.977 14.9096 36.977 13.5646 35.632L5.04089 27.1082C-1.01165 21.0557 -1.01165 11.2426 5.04089 5.19003V5.19003Z" fill="#6449FA"/>
<path d="M19.5787 10.983H17.4911L17.1929 11.557H14.8071L14.5089 10.983H12.4213C11.9468 10.983 11.4916 11.1644 11.1561 11.4873C10.8205 11.8103 10.632 12.2483 10.632 12.705V22.1763C10.632 22.633 10.8205 23.0711 11.1561 23.394C11.4916 23.7169 11.9468 23.8984 12.4213 23.8984V24.1854C12.4213 24.3376 12.4842 24.4836 12.596 24.5913C12.7079 24.6989 12.8596 24.7594 13.0178 24.7594C13.1759 24.7594 13.3277 24.6989 13.4395 24.5913C13.5514 24.4836 13.6142 24.3376 13.6142 24.1854V23.8984H18.3858V24.1854C18.3858 24.3376 18.4486 24.4836 18.5605 24.5913C18.6723 24.6989 18.824 24.7594 18.9822 24.7594C19.1404 24.7594 19.2921 24.6989 19.404 24.5913C19.5158 24.4836 19.5787 24.3376 19.5787 24.1854V23.8984C20.0532 23.8984 20.5084 23.7169 20.8439 23.394C21.1795 23.0711 21.368 22.633 21.368 22.1763V12.705C21.368 12.2483 21.1795 11.8103 20.8439 11.4873C20.5084 11.1644 20.0532 10.983 19.5787 10.983ZM13.6142 21.3153C13.6142 21.4675 13.5514 21.6135 13.4395 21.7212C13.3277 21.8288 13.1759 21.8893 13.0178 21.8893C12.8596 21.8893 12.7079 21.8288 12.596 21.7212C12.4842 21.6135 12.4213 21.4675 12.4213 21.3153V14.1401C12.4213 13.9878 12.4842 13.8418 12.596 13.7342C12.7079 13.6265 12.8596 13.566 13.0178 13.566C13.1759 13.566 13.3277 13.6265 13.4395 13.7342C13.5514 13.8418 13.6142 13.9878 13.6142 14.1401V21.3153ZM16.5964 21.3153C16.5964 21.4675 16.5336 21.6135 16.4217 21.7212C16.3099 21.8288 16.1582 21.8893 16 21.8893C15.8418 21.8893 15.6901 21.8288 15.5782 21.7212C15.4664 21.6135 15.4035 21.4675 15.4035 21.3153V14.1401C15.4035 13.9878 15.4664 13.8418 15.5782 13.7342C15.6901 13.6265 15.8418 13.566 16 13.566C16.1582 13.566 16.3099 13.6265 16.4217 13.7342C16.5336 13.8418 16.5964 13.9878 16.5964 14.1401V21.3153ZM19.5787 21.3153C19.5787 21.4675 19.5158 21.6135 19.404 21.7212C19.2921 21.8288 19.1404 21.8893 18.9822 21.8893C18.824 21.8893 18.6723 21.8288 18.5605 21.7212C18.4486 21.6135 18.3858 21.4675 18.3858 21.3153V14.1401C18.3858 13.9878 18.4486 13.8418 18.5605 13.7342C18.6723 13.6265 18.824 13.566 18.9822 13.566C19.1404 13.566 19.2921 13.6265 19.404 13.7342C19.5158 13.8418 19.5787 13.9878 19.5787 14.1401V21.3153ZM13.9124 8.9739H18.0876V10.4089H18.684V8.11287C18.684 7.96063 18.6212 7.81463 18.5093 7.70698C18.3974 7.59933 18.2457 7.53885 18.0876 7.53885H13.9124C13.7542 7.53885 13.6025 7.59933 13.4907 7.70698C13.3788 7.81463 13.316 7.96063 13.316 8.11287V10.4089H13.9124V8.9739Z" fill="white"/>
</g>
<path d="M58.6917 7.14687C58.9642 7.14687 59.1851 7.36778 59.1851 7.64029V11.5205C59.1851 11.793 58.9642 12.0139 58.6917 12.0139H53.0707C52.7982 12.0139 52.5773 12.2348 52.5773 12.5073V31.5926C52.5773 31.8651 52.3564 32.086 52.0839 32.086H46.9958C46.7233 32.086 46.5024 31.8651 46.5024 31.5926V12.5073C46.5024 12.2348 46.2815 12.0139 46.009 12.0139H40.388C40.1155 12.0139 39.8946 11.793 39.8946 11.5205V7.64029C39.8946 7.36778 40.1155 7.14687 40.388 7.14687H58.6917Z" fill="#162533"/>
<path d="M76.2217 22.1388C76.2217 20.1019 76.6006 18.3138 77.3585 16.7744C78.1401 15.2349 79.194 14.0507 80.5203 13.2218C81.8466 12.3928 83.3268 11.9784 84.961 11.9784C86.3584 11.9784 87.5781 12.2626 88.6202 12.831C89.1176 13.0963 89.5609 13.4003 89.95 13.743C90.3233 14.0718 91.0715 13.8234 91.0715 13.3259V12.756C91.0715 12.4835 91.2924 12.2626 91.5649 12.2626H96.653C96.9255 12.2626 97.1464 12.4835 97.1464 12.756V31.5926C97.1464 31.8651 96.9255 32.086 96.653 32.086H91.5649C91.2924 32.086 91.0715 31.8651 91.0715 31.5926V30.9635C91.0715 30.4707 90.3479 30.2271 89.9799 30.5548C89.5716 30.9183 89.1065 31.2392 88.5847 31.5176C87.5426 32.086 86.3229 32.3702 84.9255 32.3702C83.315 32.3702 81.8466 31.9557 80.5203 31.1268C79.194 30.2742 78.1401 29.0781 77.3585 27.5387C76.6006 25.9755 76.2217 24.1756 76.2217 22.1388ZM91.0715 22.1743C91.0715 20.6585 90.6452 19.4625 89.7925 18.5862C88.9636 17.7099 87.9452 17.2717 86.7373 17.2717C85.5294 17.2717 84.4992 17.7099 83.6466 18.5862C82.8176 19.4388 82.4032 20.623 82.4032 22.1388C82.4032 23.6545 82.8176 24.8624 83.6466 25.7624C84.4992 26.6387 85.5294 27.0768 86.7373 27.0768C87.9452 27.0768 88.9636 26.6387 89.7925 25.7624C90.6452 24.8861 91.0715 23.6901 91.0715 22.1743Z" fill="#162533"/>
<path d="M109.986 24.8491C110.128 25.3156 110.789 25.3156 110.93 24.8491L114.651 12.6125C114.714 12.4046 114.905 12.2626 115.123 12.2626H120.524C120.865 12.2626 121.103 12.5998 120.989 12.921L114.305 31.7576C114.235 31.9544 114.049 32.086 113.84 32.086H107.041C106.832 32.086 106.646 31.9544 106.576 31.7576L99.8921 12.921C99.7781 12.5998 100.016 12.2626 100.357 12.2626H105.794C106.011 12.2626 106.203 12.4046 106.266 12.6125L109.986 24.8491Z" fill="#162533"/>
<path d="M142.466 21.8546C142.466 22.2871 142.446 22.7334 142.404 23.1934C142.382 23.443 142.17 23.6308 141.92 23.6308H129.144C128.857 23.6308 128.628 23.8762 128.673 24.1601C128.828 25.1372 129.199 25.9081 129.783 26.4729C130.494 27.1124 131.358 27.4321 132.377 27.4321C133.777 27.4321 134.783 26.8863 135.395 25.7948C135.489 25.6271 135.662 25.5137 135.854 25.5137H141.37C141.691 25.5137 141.928 25.8173 141.826 26.1228C141.475 27.1844 140.93 28.1537 140.193 29.0308C139.34 30.0729 138.262 30.8899 136.96 31.482C135.657 32.0741 134.201 32.3702 132.59 32.3702C130.648 32.3702 128.919 31.9557 127.403 31.1268C125.887 30.2978 124.703 29.1137 123.851 27.5742C122.998 26.0348 122.572 24.2348 122.572 22.1743C122.572 20.1138 122.986 18.3138 123.815 16.7744C124.668 15.2349 125.852 14.0507 127.368 13.2218C128.883 12.3928 130.624 11.9784 132.59 11.9784C134.508 11.9784 136.214 12.381 137.706 13.1863C139.198 13.9915 140.358 15.1402 141.187 16.6323C142.04 18.1243 142.466 19.8651 142.466 21.8546ZM135.756 20.2559C136.028 20.2559 136.253 20.0341 136.221 19.7635C136.124 18.9493 135.778 18.2845 135.183 17.7691C134.473 17.1533 133.585 16.8454 132.519 16.8454C131.501 16.8454 130.636 17.1415 129.926 17.7336C129.362 18.2194 128.974 18.8727 128.761 19.6934C128.685 19.9858 128.919 20.2559 129.221 20.2559H135.756Z" fill="#162533"/>
<path d="M151.252 5.79689C151.525 5.79689 151.746 6.0178 151.746 6.29031V31.5926C151.746 31.8651 151.525 32.086 151.252 32.086H146.164C145.892 32.086 145.671 31.8651 145.671 31.5926V6.29031C145.671 6.0178 145.892 5.79689 146.164 5.79689H151.252Z" fill="#162533"/>
<path d="M165.418 22.1388C165.418 20.1019 165.797 18.3138 166.555 16.7744C167.336 15.2349 168.39 14.0507 169.716 13.2218C171.043 12.3928 172.523 11.9784 174.157 11.9784C175.554 11.9784 176.774 12.2626 177.816 12.831C178.314 13.0963 178.757 13.4003 179.146 13.743C179.519 14.0718 180.268 13.8234 180.268 13.3259V12.756C180.268 12.4835 180.488 12.2626 180.761 12.2626H185.849C186.122 12.2626 186.342 12.4835 186.342 12.756V31.5926C186.342 31.8651 186.122 32.086 185.849 32.086H180.761C180.488 32.086 180.268 31.8651 180.268 31.5926V30.9635C180.268 30.4707 179.544 30.2271 179.176 30.5548C178.768 30.9183 178.303 31.2392 177.781 31.5176C176.739 32.086 175.519 32.3702 174.122 32.3702C172.511 32.3702 171.043 31.9557 169.716 31.1268C168.39 30.2742 167.336 29.0781 166.555 27.5387C165.797 25.9755 165.418 24.1756 165.418 22.1388ZM180.268 22.1743C180.268 20.6585 179.841 19.4625 178.989 18.5862C178.16 17.7099 177.141 17.2717 175.933 17.2717C174.726 17.2717 173.695 17.7099 172.843 18.5862C172.014 19.4388 171.599 20.623 171.599 22.1388C171.599 23.6545 172.014 24.8624 172.843 25.7624C173.695 26.6387 174.726 27.0768 175.933 27.0768C177.141 27.0768 178.16 26.6387 178.989 25.7624C179.841 24.8861 180.268 23.6901 180.268 22.1743Z" fill="#162533"/>
<path d="M68.3089 22.8848V31.5926C68.3089 31.8651 68.088 32.086 67.8155 32.086H62.7274C62.4549 32.086 62.234 31.8651 62.234 31.5926V12.756C62.234 12.4835 62.4549 12.2626 62.7274 12.2626H67.8155C68.088 12.2626 68.3089 12.4835 68.3089 12.756V15.5665V22.8848Z" fill="#162533"/>
<path fill-rule="evenodd" clip-rule="evenodd" d="M161.73 32.086C162.002 32.086 162.223 31.8651 162.223 31.5926V12.756C162.223 12.4835 162.002 12.2626 161.73 12.2626H156.642C156.369 12.2626 156.148 12.4835 156.148 12.756V31.5926C156.148 31.8651 156.369 32.086 156.642 32.086H161.73Z" fill="#162533"/>
<circle cx="159.137" cy="7.54595" r="3.24038" fill="#6449FA"/>
<path d="M72.6679 18.2683C70.9921 18.2683 69.6336 16.9099 69.6336 15.2344C69.6336 13.5588 70.9921 12.2005 72.6679 12.2005C74.3436 12.2005 75.7021 13.5588 75.7021 15.2344C75.7021 16.9099 74.3436 18.2683 72.6679 18.2683Z" fill="#6449FA"/>
</g>
<defs>
<clipPath id="clip0_48_105">
<rect width="187" height="38" fill="white"/>
</clipPath>
<clipPath id="clip1_48_105">
<rect width="32" height="36.7192" fill="white" transform="translate(0 0.640419)"/>
</clipPath>
</defs>
</svg>
