<svg width="31" height="31" viewBox="0 0 31 31" fill="none" xmlns="http://www.w3.org/2000/svg">
<g clip-path="url(#clip0_89_1793)">
<path d="M6.25218 4.25217C11.362 -0.857663 19.6467 -0.857663 24.7565 4.25217V4.25217C29.8663 9.362 29.8663 17.6467 24.7565 22.7565L17.5604 29.9526C16.4249 31.0882 14.5838 31.0882 13.4483 29.9526L6.25218 22.7565C1.14235 17.6467 1.14235 9.362 6.25218 4.25217V4.25217Z" fill="#6449FA"/>
<path d="M18.412 9.14282H16.7159L16.4736 9.62743H14.5351L14.2928 9.14282H12.5967C12.2111 9.14282 11.8413 9.29599 11.5687 9.56864C11.296 9.84129 11.1428 10.2111 11.1428 10.5967V18.5928C11.1428 18.9784 11.296 19.3481 11.5687 19.6208C11.8413 19.8934 12.2111 20.0466 12.5967 20.0466V20.2889C12.5967 20.4174 12.6477 20.5407 12.7386 20.6316C12.8295 20.7225 12.9528 20.7735 13.0813 20.7735C13.2098 20.7735 13.3331 20.7225 13.424 20.6316C13.5148 20.5407 13.5659 20.4174 13.5659 20.2889V20.0466H17.4428V20.2889C17.4428 20.4174 17.4939 20.5407 17.5847 20.6316C17.6756 20.7225 17.7989 20.7735 17.9274 20.7735C18.0559 20.7735 18.1792 20.7225 18.2701 20.6316C18.361 20.5407 18.412 20.4174 18.412 20.2889V20.0466C18.7976 20.0466 19.1674 19.8934 19.44 19.6208C19.7127 19.3481 19.8659 18.9784 19.8659 18.5928V10.5967C19.8659 10.2111 19.7127 9.84129 19.44 9.56864C19.1674 9.29599 18.7976 9.14282 18.412 9.14282ZM13.5659 17.8658C13.5659 17.9944 13.5148 18.1176 13.424 18.2085C13.3331 18.2994 13.2098 18.3505 13.0813 18.3505C12.9528 18.3505 12.8295 18.2994 12.7386 18.2085C12.6477 18.1176 12.5967 17.9944 12.5967 17.8658V11.8082C12.5967 11.6797 12.6477 11.5564 12.7386 11.4655C12.8295 11.3746 12.9528 11.3236 13.0813 11.3236C13.2098 11.3236 13.3331 11.3746 13.424 11.4655C13.5148 11.5564 13.5659 11.6797 13.5659 11.8082V17.8658ZM15.989 17.8658C15.989 17.9944 15.9379 18.1176 15.847 18.2085C15.7561 18.2994 15.6329 18.3505 15.5044 18.3505C15.3758 18.3505 15.2526 18.2994 15.1617 18.2085C15.0708 18.1176 15.0197 17.9944 15.0197 17.8658V11.8082C15.0197 11.6797 15.0708 11.5564 15.1617 11.4655C15.2526 11.3746 15.3758 11.3236 15.5044 11.3236C15.6329 11.3236 15.7561 11.3746 15.847 11.4655C15.9379 11.5564 15.989 11.6797 15.989 11.8082V17.8658ZM18.412 17.8658C18.412 17.9944 18.361 18.1176 18.2701 18.2085C18.1792 18.2994 18.0559 18.3505 17.9274 18.3505C17.7989 18.3505 17.6756 18.2994 17.5847 18.2085C17.4939 18.1176 17.4428 17.9944 17.4428 17.8658V11.8082C17.4428 11.6797 17.4939 11.5564 17.5847 11.4655C17.6756 11.3746 17.7989 11.3236 17.9274 11.3236C18.0559 11.3236 18.1792 11.3746 18.2701 11.4655C18.361 11.5564 18.412 11.6797 18.412 11.8082V17.8658ZM13.8082 7.44668H17.2005V8.65821H17.6851V6.71976C17.6851 6.59123 17.6341 6.46797 17.5432 6.37709C17.4523 6.2862 17.329 6.23515 17.2005 6.23515H13.8082C13.6797 6.23515 13.5564 6.2862 13.4655 6.37709C13.3747 6.46797 13.3236 6.59123 13.3236 6.71976V8.65821H13.8082V7.44668Z" fill="white"/>
</g>
<defs>
<clipPath id="clip0_89_1793">
<rect width="31" height="31" fill="white"/>
</clipPath>
</defs>
</svg>
