<svg width="513" height="512" viewBox="0 0 513 512" fill="none" xmlns="http://www.w3.org/2000/svg">
<g clip-path="url(#clip0_111_108)">
<path d="M501.029 312.869C495.538 337.815 486.32 361.79 473.686 383.99C466.043 397.434 457.159 410.196 447.128 422.089C419.184 455.244 383.064 444.548 339.276 460.143C312.697 469.616 220.447 509.868 215.183 509.062C178.201 503.353 142.956 489.495 112.086 468.739C68.6607 439.555 53.1987 396.905 34.3043 343.831C15.3995 290.748 -4.0833 235.316 11.1191 185.252C33.6538 110.998 89.882 48.0374 168.583 20.0112C189.235 12.6582 210.198 8.13884 231.057 6.27732C318.88 -1.63413 404.84 37.2199 457.066 107.699C471.627 127.338 454.021 183.656 462.646 207.877C479.172 254.29 510.895 268.079 501.029 312.869Z" fill="#3C87D0"/>
<path d="M456.017 312.868C450.524 337.814 441.306 361.789 428.671 383.988C399.704 434.899 353.046 476.054 293.542 497.24C272.904 504.594 220.454 509.869 215.185 509.057C178.196 503.351 142.957 489.494 112.086 468.743C68.6617 439.557 53.1997 396.911 34.3043 343.831C15.3975 290.752 -4.08123 235.314 11.1212 185.249C33.6548 110.993 89.8809 48.0373 168.586 20.0121C189.235 12.6581 210.202 8.14185 231.058 6.2793C302.464 12.6798 368.828 49.3527 412.055 107.694C426.61 127.335 438.557 149.419 447.183 173.641C463.699 220.047 465.881 268.075 456.017 312.868Z" fill="#5F99D7"/>
<path d="M501.03 312.868L451.457 330.524L435.839 336.081C408.536 345.803 378.528 331.555 368.817 304.275L362.164 285.61L353.823 288.58C333.865 295.693 311.923 285.281 304.82 265.323L285.004 209.689C277.902 189.731 288.315 167.789 308.273 160.686L420.965 120.549L457.068 107.694C471.623 127.335 483.559 149.418 492.185 173.641C508.713 220.047 510.894 268.075 501.03 312.868Z" fill="#0AB69F"/>
<path d="M456.017 312.868C454.714 318.808 453.193 324.697 451.457 330.525L435.839 336.081C408.536 345.804 378.528 331.555 368.817 304.275L362.164 285.61L353.823 288.58C333.865 295.694 311.923 285.281 304.82 265.323L285.004 209.689C277.902 189.731 288.315 167.789 308.273 160.686L420.965 120.55C431.542 136.814 440.387 154.57 447.182 173.641C463.699 220.047 465.881 268.075 456.017 312.868Z" fill="#5DE1C4"/>
<path d="M178.505 445.093L143.76 457.467L112.086 468.744C68.6617 439.558 33.8524 396.692 14.9569 343.612C-3.93851 290.575 -4.08123 235.402 11.0881 185.369L11.1212 185.249L43.2789 173.795C63.2374 166.682 85.1796 177.105 92.2823 197.063L96.5234 208.944C102.793 226.545 95.4272 245.693 79.897 254.834L80.1276 255.502C88.9398 280.228 76.0281 307.421 51.3134 316.233L88.7092 302.916L88.9067 302.85L123.464 290.541C161.868 276.863 204.097 296.898 217.776 335.302L223.29 350.767C236.967 389.184 216.909 431.414 178.505 445.093Z" fill="#0AB69F"/>
<path d="M143.76 457.467L112.086 468.744C68.6617 439.558 33.8524 396.692 14.9569 343.612C-3.93851 290.575 -4.08123 235.402 11.0881 185.369C30.3341 179.955 50.7312 190.322 57.5371 209.437L61.7679 221.318C68.0371 238.919 60.6717 258.067 45.1414 267.219L45.3824 267.876C48.0278 275.627 55.7397 306.85 34.3912 322.26L51.3124 316.232L88.7082 302.915L88.9057 302.849C127.266 289.302 169.375 309.337 183.031 347.676L188.533 363.152C202.211 401.558 182.166 443.788 143.76 457.467Z" fill="#5DE1C4"/>
<path d="M294.66 95.0572C294.66 112.056 284.095 127.993 267.162 134.021L230.072 147.227C229.995 147.26 229.929 147.293 229.853 147.315L198.66 158.418C177.145 166.079 153.503 154.845 145.842 133.33C144.25 128.877 143.434 124.184 143.431 119.454C143.431 102.456 153.985 86.5304 170.919 80.5022L202.1 69.3993L239.409 56.1049C260.924 48.4438 284.576 59.678 292.249 81.193C293.842 85.6419 294.657 90.3317 294.66 95.0572Z" fill="#C8EFFE"/>
<path d="M257.341 108.351C257.341 125.274 246.874 141.144 230.072 147.227C229.995 147.26 229.929 147.293 229.853 147.315L198.66 158.418C177.145 166.079 153.503 154.845 145.842 133.33C144.25 128.877 143.434 124.184 143.431 119.454C143.431 102.456 153.985 86.5304 170.919 80.5022L202.1 69.3992C223.615 61.7381 247.267 72.9609 254.928 94.4759C256.522 98.9286 257.338 103.622 257.341 108.351Z" fill="#EAF6FF"/>
<path d="M146.265 399.967C163.062 399.967 176.678 386.351 176.678 369.554C176.678 352.758 163.062 339.141 146.265 339.141C129.469 339.141 115.852 352.758 115.852 369.554C115.852 386.351 129.469 399.967 146.265 399.967Z" fill="#FEE903"/>
<path d="M365.309 243.624C381.628 243.624 394.857 230.395 394.857 214.075C394.857 197.756 381.628 184.527 365.309 184.527C348.99 184.527 335.76 197.756 335.76 214.075C335.76 230.395 348.99 243.624 365.309 243.624Z" fill="#FEE903"/>
<path d="M365.309 84.7836L458.427 52.2143C464.052 50.2473 464.052 42.2924 458.427 40.3244L365.309 7.7561V84.7836Z" fill="#FD4755"/>
<path d="M447.128 422.089C419.184 455.244 382.347 481.647 338.56 497.242C311.982 506.715 284.876 511.462 258.142 511.959C249.062 512.124 240.044 511.793 231.088 510.997C229.599 510.862 228.12 510.717 226.641 510.552C222.805 510.149 218.978 509.642 215.183 509.063C220.354 485.453 237.211 464.976 261.669 456.268L316.315 436.805L381.706 413.505C391.748 409.927 402.048 408.706 412.018 409.544C424.612 410.604 436.713 414.927 447.128 422.089Z" fill="#C8EFFE"/>
<path d="M412.018 409.544C383.133 448.574 342.728 479.723 293.542 497.242C272.9 504.595 251.937 509.114 231.088 510.997C229.599 510.862 228.12 510.717 226.641 510.552C222.805 510.149 218.989 509.642 215.183 509.063C220.354 485.453 237.211 464.976 261.669 456.268L316.315 436.805L381.706 413.505C391.748 409.927 402.048 408.706 412.018 409.544Z" fill="#EAF6FF"/>
<path d="M365.309 221.832C364.29 221.832 363.282 221.631 362.341 221.241C361.4 220.852 360.544 220.28 359.824 219.56C359.104 218.84 358.533 217.985 358.143 217.044C357.753 216.103 357.553 215.094 357.553 214.075V7.75608C357.553 3.47149 361.024 -0.000244141 365.309 -0.000244141C369.594 -0.000244141 373.065 3.47149 373.065 7.75608V214.075C373.065 218.36 369.594 221.832 365.309 221.832Z" fill="#E9B665"/>
<path d="M146.274 377.308C145.138 377.309 144.016 377.061 142.987 376.582C141.957 376.102 141.046 375.402 140.317 374.531C139.588 373.66 139.059 372.64 138.768 371.542C138.477 370.445 138.431 369.296 138.632 368.179C138.687 367.874 140.024 360.557 143.728 349.189C144.044 348.221 144.547 347.324 145.209 346.549C145.871 345.775 146.679 345.139 147.587 344.677C148.495 344.216 149.486 343.937 150.501 343.858C151.517 343.779 152.538 343.901 153.507 344.217C155.462 344.854 157.085 346.243 158.017 348.076C158.949 349.91 159.115 352.038 158.478 353.994C155.134 364.258 153.91 370.872 153.897 370.938C153.572 372.723 152.63 374.338 151.238 375.502C149.845 376.665 148.088 377.304 146.274 377.308ZM165.39 325.431C164.057 325.43 162.746 325.085 161.585 324.43C160.424 323.775 159.451 322.831 158.761 321.691C158.07 320.55 157.686 319.25 157.644 317.918C157.602 316.585 157.905 315.264 158.522 314.082C164.51 302.619 171.413 291.79 179.041 281.898C180.3 280.275 182.15 279.219 184.187 278.958C186.223 278.698 188.28 279.256 189.906 280.51C191.531 281.763 192.594 283.61 192.86 285.646C193.127 287.682 192.575 289.74 191.326 291.37C184.252 300.546 177.841 310.605 172.272 321.266C171.615 322.522 170.626 323.575 169.413 324.31C168.2 325.044 166.808 325.432 165.39 325.431ZM210.336 267.536C208.757 267.537 207.217 267.056 205.919 266.158C204.621 265.26 203.628 263.988 203.072 262.51C202.516 261.033 202.425 259.422 202.809 257.891C203.193 256.36 204.035 254.983 205.223 253.944C214.869 245.495 225.36 238.062 236.529 231.762C237.417 231.262 238.394 230.941 239.405 230.819C240.416 230.697 241.442 230.775 242.423 231.048C243.404 231.322 244.322 231.787 245.123 232.415C245.925 233.044 246.595 233.824 247.095 234.712C247.595 235.599 247.915 236.576 248.038 237.588C248.16 238.599 248.082 239.624 247.808 240.605C247.534 241.587 247.07 242.504 246.441 243.306C245.813 244.107 245.032 244.777 244.145 245.277C233.905 251.054 224.287 257.869 215.442 265.615C214.03 266.855 212.215 267.538 210.336 267.536ZM274.025 231.548C272.179 231.546 270.393 230.886 268.99 229.686C267.586 228.486 266.657 226.825 266.368 225.001C266.08 223.177 266.451 221.31 267.416 219.736C268.381 218.161 269.875 216.983 271.631 216.411C283.401 212.591 295.915 209.744 308.825 207.95C313.077 207.361 316.986 210.321 317.576 214.564C318.165 218.808 315.203 222.725 310.961 223.315C298.949 224.983 287.328 227.624 276.424 231.166C275.627 231.425 274.82 231.548 274.025 231.548Z" fill="#596C76"/>
<path d="M328.666 389.686C326.839 389.684 325.071 389.037 323.675 387.859C322.278 386.681 321.341 385.049 321.03 383.248C320.719 381.448 321.053 379.596 321.974 378.018C322.895 376.44 324.343 375.237 326.063 374.622L360.763 362.258C364.793 360.817 369.234 362.925 370.672 366.961C372.111 370.996 370.004 375.433 365.97 376.87L331.27 389.234C330.434 389.532 329.554 389.685 328.666 389.686ZM275.999 377.302C274.172 377.3 272.404 376.653 271.007 375.476C269.61 374.298 268.674 372.665 268.363 370.865C268.051 369.065 268.386 367.212 269.306 365.634C270.227 364.056 271.675 362.854 273.396 362.239L308.095 349.875C312.126 348.433 316.566 350.542 318.005 354.577C319.443 358.613 317.337 363.049 313.302 364.487L278.603 376.851C277.767 377.149 276.886 377.302 275.999 377.302Z" fill="#EAF6FF"/>
</g>
<defs>
<clipPath id="clip0_111_108">
<rect width="512" height="512" fill="white" transform="translate(0.203842)"/>
</clipPath>
</defs>
</svg>
