<svg width="512" height="512" viewBox="0 0 512 512" fill="none" xmlns="http://www.w3.org/2000/svg">
<g clip-path="url(#clip0_114_126)">
<path d="M365.414 175.686H334.767V121.245H365.414C374.251 121.245 381.414 128.408 381.414 137.245V159.686C381.414 168.522 374.251 175.686 365.414 175.686ZM153.283 121.244H182.713V175.685H153.283C144.446 175.685 137.283 168.522 137.283 159.685V137.244C137.283 128.408 144.447 121.244 153.283 121.244Z" fill="#FFB09E"/>
<path d="M77.814 401.445L171.174 430.574L209.334 472.92L297.713 512H435.828C441.518 512 446.13 507.388 446.13 501.698V401.445C446.13 335.446 392.628 281.944 326.629 281.944H210.534L192.774 282.84C126.775 282.84 77.814 335.447 77.814 401.445Z" fill="#5F99D7"/>
<path d="M446.13 401.445C446.13 347.422 410.278 301.779 361.072 286.991C357.088 307.786 360.794 329.451 372.12 348.278L399.009 392.973C387.605 398.093 379.642 409.558 379.642 422.848C379.642 440.893 394.323 455.574 412.369 455.574H446.131V401.445H446.13ZM99.495 489.438V401.445C99.495 335.446 152.998 281.944 218.996 281.944H191.799C125.8 281.944 72.298 335.447 72.298 401.445V489.438C72.298 495.128 76.91 499.74 82.6 499.74H109.797C104.107 499.74 99.495 495.128 99.495 489.438Z" fill="#3C87D0"/>
<path d="M259.734 324.3L257.394 324.39C237.114 324.39 225.054 310.881 225.054 290.601L225.894 230.816H297.042V290.601C297.042 307.309 285.883 321.411 270.611 325.86C267.347 326.811 263.306 324.3 259.734 324.3Z" fill="#FFCEBF"/>
<path d="M243.637 289.531V230.816H221.385V289.531C221.385 310.402 238.321 327.321 259.213 327.321C263.085 327.321 267.092 326.94 270.61 325.86C255.15 321.113 243.637 306.533 243.637 289.531Z" fill="#FFB09E"/>
<path d="M312.102 38.4451H206.326C187.332 38.4451 177.414 53.8271 177.414 72.8021L175.254 182.562C175.254 226.54 206.27 260.841 250.292 260.841L266.784 262.192C310.807 262.192 346.494 226.54 346.494 182.562V72.8021C346.494 53.8271 331.096 38.4451 312.102 38.4451Z" fill="#FFCEBF"/>
<path d="M194.33 182.563V72.8021C194.33 53.8271 209.728 38.4451 228.722 38.4451H206.326C187.332 38.4451 171.934 53.8271 171.934 72.8021V182.562C171.934 226.54 207.621 262.192 251.644 262.192H266.784C268.001 262.192 269.209 262.154 270.412 262.1C228.074 260.205 194.33 225.325 194.33 182.563Z" fill="#FFB09E"/>
<path d="M262.158 90.378L279.914 102.75C297.193 114.79 317.747 121.244 338.807 121.244H356.794V72.865C356.795 32.623 324.14 0 283.857 0H250.959L234.624 1.38C194.341 1.38 169.974 33.798 169.974 74.04L166.854 115.32L179.619 121.244C200.679 121.244 221.233 114.79 238.512 102.75L256.268 90.378C257.132 89.776 258.16 89.4533 259.213 89.4533C260.266 89.4533 261.294 89.776 262.158 90.378Z" fill="#FFD772"/>
<path d="M182.713 72.865C182.713 32.623 215.368 0 255.651 0H234.571C194.288 0 161.633 32.623 161.633 72.865V121.244H179.62C180.653 121.244 181.683 121.216 182.713 121.185V72.865Z" fill="#FDB440"/>
<path d="M259.214 223.119C251.35 223.119 243.632 220.99 236.879 216.96L232.861 214.564C231.979 214.05 231.208 213.366 230.592 212.551C229.976 211.737 229.527 210.809 229.272 209.82C229.017 208.832 228.96 207.802 229.105 206.792C229.25 205.781 229.594 204.809 230.117 203.932C230.64 203.055 231.332 202.291 232.152 201.682C232.972 201.074 233.904 200.635 234.895 200.389C235.886 200.144 236.916 200.097 237.925 200.252C238.935 200.406 239.903 200.76 240.775 201.291L244.793 203.686C249.153 206.289 254.137 207.663 259.215 207.663C264.293 207.663 269.276 206.288 273.636 203.685L277.654 201.29C279.413 200.264 281.506 199.974 283.478 200.483C285.45 200.992 287.141 202.258 288.184 204.007C289.227 205.757 289.537 207.847 289.047 209.823C288.557 211.8 287.307 213.503 285.568 214.563L281.55 216.958C274.797 220.989 267.079 223.118 259.214 223.119Z" fill="#EA8E5C"/>
<path d="M297.713 512H226.475L209.094 480.6L226.475 470.813H287.713C293.236 470.813 297.713 475.29 297.713 480.813V512Z" fill="#B3CEEC"/>
<path d="M210.294 485.16L206.214 500.28L226.475 512H245.657V470.813H226.475L210.294 485.16Z" fill="#98BCE5"/>
<path d="M226.475 512H24.971L17.454 507C11.931 507 13.854 507.523 13.854 502L9.53398 377.943C9.53398 372.42 9.41098 370.92 14.934 370.92L33.294 367.943H216.475C221.998 367.943 226.475 372.42 226.475 377.943V512Z" fill="#D3E1F5"/>
<path d="M35.273 367.943H13.516C7.82599 367.943 3.21399 372.555 3.21399 378.245V501.699C3.21399 507.389 7.82599 512.001 13.516 512.001H24.972V378.244C24.971 372.555 29.584 367.943 35.273 367.943ZM115.402 459.009H114.286C104.08 459.009 95.806 450.735 95.806 440.529V439.413C95.806 429.207 104.08 420.933 114.286 420.933H115.402C125.608 420.933 133.882 429.207 133.882 439.413V440.529C133.882 450.735 125.608 459.009 115.402 459.009Z" fill="#B3CEEC"/>
<path d="M220.716 169.312C224.984 169.312 228.444 165.852 228.444 161.584C228.444 157.316 224.984 153.856 220.716 153.856C216.448 153.856 212.988 157.316 212.988 161.584C212.988 165.852 216.448 169.312 220.716 169.312Z" fill="#DD774A"/>
<path d="M297.712 169.312C301.98 169.312 305.44 165.852 305.44 161.584C305.44 157.316 301.98 153.856 297.712 153.856C293.444 153.856 289.984 157.316 289.984 161.584C289.984 165.852 293.444 169.312 297.712 169.312Z" fill="#DD774A"/>
<path d="M499.536 335.879C522.475 298.505 500.631 249.227 457.353 242.155C453.294 241.493 449.185 241.192 445.073 241.255C444.31 241.266 449.238 241.29 448.481 241.327C401.967 243.563 375.226 295.487 399.232 335.391L446.158 422.848L499.536 335.879ZM446.127 276.574C460.907 276.574 472.888 288.555 472.888 303.335C472.888 318.115 460.907 330.096 446.127 330.096C431.347 330.096 419.366 318.115 419.366 303.335C419.365 288.555 431.347 276.574 446.127 276.574Z" fill="#FF9A42"/>
<path d="M411.046 335.391C387.974 297.039 411.781 247.592 454.963 241.818C450.927 241.3 446.854 241.136 442.79 241.327C396.276 243.563 369.535 295.487 393.541 335.391L446.155 422.848L454.995 408.446L411.046 335.391Z" fill="#FF7A3C"/>
<path d="M479.886 430.574H412.368C410.319 430.574 408.354 429.76 406.905 428.311C405.456 426.862 404.642 424.897 404.642 422.848C404.642 420.799 405.456 418.834 406.905 417.385C408.354 415.936 410.319 415.122 412.368 415.122H479.886C484.154 415.122 487.612 418.581 487.612 422.848C487.612 427.115 484.154 430.574 479.886 430.574Z" fill="#D3E1F5"/>
</g>
<defs>
<clipPath id="clip0_114_126">
<rect width="512" height="512" fill="white"/>
</clipPath>
</defs>
</svg>
