<svg width="512" height="512" viewBox="0 0 512 512" fill="none" xmlns="http://www.w3.org/2000/svg">
<g clip-path="url(#clip0_114_147)">
<path d="M48.789 65.28L9.75598 72.885V328.533C9.75598 339.912 18.981 349.137 30.36 349.137H74.039L165.019 382.441L256 349.136H291.126C296.208 349.136 301.111 347.258 304.892 343.862L321.907 328.582C329.738 321.55 341.609 321.55 349.439 328.582L366.454 343.862C370.235 347.258 375.138 349.136 380.22 349.136H491.395C502.774 349.136 511.999 339.912 511.999 328.532V72.885L442.919 65.28H48.789Z" fill="#D3E1F5"/>
<path d="M491.396 1.09516e-08H380.221C375.139 -0.000165611 370.236 1.8782 366.455 5.274L349.44 20.554C341.61 27.586 329.738 27.586 321.908 20.554L304.893 5.274C301.111 1.87829 296.208 -3.42546e-05 291.126 1.09517e-08L20.604 1.09516e-08C9.225 1.09516e-08 0 9.225 0 20.604V72.885H512V20.604C512 9.225 502.775 1.09516e-08 491.396 1.09516e-08Z" fill="#5F99D7"/>
<path d="M28.186 328.532V72.8851L24.395 66.3601H6.6L0 72.8851V328.533C0 339.912 9.225 349.137 20.604 349.137H48.79C37.41 349.136 28.186 339.911 28.186 328.532Z" fill="#B3CEEC"/>
<path d="M48.789 0H20.604C9.225 0 0 9.225 0 20.604V72.885H28.186V20.604C28.186 9.225 37.41 0 48.789 0Z" fill="#3C87D0"/>
<path d="M262.387 159.286H294.487C295.163 159.286 295.833 159.153 296.458 158.894C297.083 158.635 297.651 158.256 298.13 157.778C298.608 157.299 298.987 156.731 299.246 156.106C299.505 155.481 299.638 154.812 299.638 154.135V123.306C299.638 122.63 299.505 121.96 299.246 121.335C298.987 120.71 298.608 120.142 298.13 119.663C297.651 119.185 297.083 118.806 296.458 118.547C295.833 118.288 295.163 118.155 294.487 118.155H262.387C261.71 118.155 261.041 118.288 260.416 118.547C259.791 118.806 259.223 119.185 258.744 119.663C258.266 120.142 257.887 120.71 257.628 121.335C257.369 121.96 257.236 122.63 257.236 123.306V154.135C257.236 154.812 257.369 155.481 257.628 156.106C257.887 156.731 258.266 157.299 258.744 157.778C259.223 158.256 259.791 158.635 260.416 158.894C261.041 159.153 261.71 159.286 262.387 159.286Z" fill="#FFD772"/>
<path d="M232.92 293.64C220.689 293.64 217.8 300.594 217.8 312.825L217.377 349.136H83.64L80.4 499.8C80.4 505.49 95.23 512 100.92 512H218.467C224.157 512 228.769 507.388 228.769 501.698V469.246C228.769 460.061 231.131 451.03 235.627 443.021L249.141 418.95C253.638 410.941 255.999 401.91 255.999 392.725V312.825C255.999 304.551 251.462 297.337 244.74 293.536C241.526 291.717 236.877 293.64 232.92 293.64Z" fill="#FFCEBF"/>
<path d="M95.7961 501.698V349.136H74.0391V501.698C74.0391 507.388 78.6511 512 84.3411 512H106.098C100.409 512 95.7961 507.388 95.7961 501.698ZM233.466 312.825C233.466 304.552 238.011 297.351 244.733 293.549C241.416 291.667 237.668 290.678 233.854 290.68C221.623 290.68 211.709 300.595 211.709 312.825V395.157H233.466V312.825ZM211.709 395.157H196.149C178.957 395.157 165.019 409.094 165.019 426.287V452.271H186.247V426.287C186.247 409.095 200.184 395.157 217.376 395.157H211.709Z" fill="#FFB09E"/>
<path d="M334.818 87.168C335.833 87.1682 336.837 86.9684 337.775 86.5802C338.712 86.192 339.564 85.6229 340.281 84.9054C340.999 84.188 341.568 83.3362 341.956 82.3988C342.344 81.4614 342.544 80.4567 342.544 79.442V60.527C342.544 58.478 341.73 56.5128 340.281 55.0639C338.832 53.615 336.867 52.801 334.818 52.801C332.769 52.801 330.804 53.615 329.355 55.0639C327.906 56.5128 327.092 58.478 327.092 60.527V79.441C327.092 80.4557 327.292 81.4605 327.68 82.3979C328.068 83.3354 328.637 84.1872 329.355 84.9048C330.072 85.6223 330.924 86.1915 331.861 86.5798C332.799 86.9682 333.803 87.168 334.818 87.168Z" fill="#B3CEEC"/>
<path d="M342.544 72.885V60.527C342.544 58.478 341.73 56.5128 340.281 55.0639C338.832 53.615 336.867 52.801 334.818 52.801C332.769 52.801 330.804 53.615 329.355 55.0639C327.906 56.5128 327.092 58.478 327.092 60.527V72.885H342.544Z" fill="#3C87D0"/>
<path d="M327.092 131.733C327.092 133.782 327.906 135.747 329.355 137.196C330.804 138.645 332.769 139.459 334.818 139.459C336.867 139.459 338.832 138.645 340.281 137.196C341.73 135.747 342.544 133.782 342.544 131.733V112.819C342.544 110.77 341.73 108.805 340.281 107.356C338.832 105.907 336.867 105.093 334.818 105.093C332.769 105.093 330.804 105.907 329.355 107.356C327.906 108.805 327.092 110.77 327.092 112.819V131.733ZM327.092 184.025C327.092 186.074 327.906 188.039 329.355 189.488C330.804 190.937 332.769 191.751 334.818 191.751C336.867 191.751 338.832 190.937 340.281 189.488C341.73 188.039 342.544 186.074 342.544 184.025V165.111C342.544 163.062 341.73 161.097 340.281 159.648C338.832 158.199 336.867 157.385 334.818 157.385C332.769 157.385 330.804 158.199 329.355 159.648C327.906 161.097 327.092 163.062 327.092 165.111V184.025ZM327.092 236.317C327.092 238.366 327.906 240.331 329.355 241.78C330.804 243.229 332.769 244.043 334.818 244.043C336.867 244.043 338.832 243.229 340.281 241.78C341.73 240.331 342.544 238.366 342.544 236.317V217.403C342.544 215.354 341.73 213.389 340.281 211.94C338.832 210.491 336.867 209.677 334.818 209.677C332.769 209.677 330.804 210.491 329.355 211.94C327.906 213.389 327.092 215.354 327.092 217.403V236.317ZM327.092 288.609C327.092 290.658 327.906 292.623 329.355 294.072C330.804 295.521 332.769 296.335 334.818 296.335C336.867 296.335 338.832 295.521 340.281 294.072C341.73 292.623 342.544 290.658 342.544 288.609V269.695C342.544 267.646 341.73 265.681 340.281 264.232C338.832 262.783 336.867 261.969 334.818 261.969C332.769 261.969 330.804 262.783 329.355 264.232C327.906 265.681 327.092 267.646 327.092 269.695V288.609ZM370.598 125.882H474.44C476.489 125.882 478.454 125.068 479.903 123.619C481.352 122.17 482.166 120.205 482.166 118.156C482.166 116.107 481.352 114.142 479.903 112.693C478.454 111.244 476.489 110.43 474.44 110.43H370.598C366.33 110.43 362.872 113.889 362.872 118.156C362.872 122.423 366.33 125.882 370.598 125.882ZM370.598 167.012H474.44C476.489 167.012 478.454 166.198 479.903 164.749C481.352 163.3 482.166 161.335 482.166 159.286C482.166 157.237 481.352 155.272 479.903 153.823C478.454 152.374 476.489 151.56 474.44 151.56H370.598C369.583 151.56 368.579 151.76 367.641 152.148C366.704 152.536 365.852 153.105 365.135 153.823C364.417 154.54 363.848 155.392 363.46 156.329C363.072 157.267 362.872 158.271 362.872 159.286C362.872 160.301 363.072 161.305 363.46 162.243C363.848 163.18 364.417 164.032 365.135 164.749C365.852 165.467 366.704 166.036 367.641 166.424C368.579 166.812 369.583 167.012 370.598 167.012ZM370.598 208.143H474.44C476.489 208.143 478.454 207.329 479.903 205.88C481.352 204.431 482.166 202.466 482.166 200.417C482.166 198.368 481.352 196.403 479.903 194.954C478.454 193.505 476.489 192.691 474.44 192.691H370.598C366.33 192.691 362.872 196.15 362.872 200.417C362.872 204.684 366.33 208.143 370.598 208.143ZM370.598 249.273H474.44C476.489 249.273 478.454 248.459 479.903 247.01C481.352 245.561 482.166 243.596 482.166 241.547C482.166 239.498 481.352 237.533 479.903 236.084C478.454 234.635 476.489 233.821 474.44 233.821H370.598C366.33 233.821 362.872 237.28 362.872 241.547C362.872 245.814 366.33 249.273 370.598 249.273ZM370.598 290.403H474.44C476.489 290.403 478.454 289.589 479.903 288.14C481.352 286.691 482.166 284.726 482.166 282.677C482.166 280.628 481.352 278.663 479.903 277.214C478.454 275.765 476.489 274.951 474.44 274.951H370.598C366.33 274.951 362.872 278.41 362.872 282.677C362.872 286.944 366.33 290.403 370.598 290.403ZM302.812 192.69H257.237C255.188 192.69 253.223 193.504 251.774 194.953C250.325 196.402 249.511 198.367 249.511 200.416C249.511 202.465 250.325 204.43 251.774 205.879C253.223 207.328 255.188 208.142 257.237 208.142H302.812C304.861 208.142 306.826 207.328 308.275 205.879C309.724 204.43 310.538 202.465 310.538 200.416C310.538 198.367 309.724 196.402 308.275 194.953C306.826 193.504 304.861 192.69 302.812 192.69ZM302.812 233.82H257.237C255.188 233.82 253.223 234.634 251.774 236.083C250.325 237.532 249.511 239.497 249.511 241.546C249.511 243.595 250.325 245.56 251.774 247.009C253.223 248.458 255.188 249.272 257.237 249.272H302.812C304.861 249.272 306.826 248.458 308.275 247.009C309.724 245.56 310.538 243.595 310.538 241.546C310.538 239.497 309.724 237.532 308.275 236.083C306.826 234.634 304.861 233.82 302.812 233.82Z" fill="#B3CEEC"/>
<path d="M225.944 212.908V209.081C225.944 208.494 225.777 207.92 225.463 207.424C225.148 206.929 224.699 206.534 224.168 206.284L156.225 174.354C155.517 174.021 154.918 173.494 154.499 172.834C154.08 172.173 153.857 171.407 153.857 170.625V140.24C153.857 130.164 146.023 121.562 135.953 121.225H134.683C124.613 121.561 116.779 130.164 116.779 140.24V170.625C116.779 171.407 116.556 172.173 116.137 172.834C115.718 173.494 115.119 174.021 114.411 174.354L46.468 206.284C45.937 206.534 45.488 206.929 45.1735 207.424C44.8589 207.92 44.692 208.494 44.692 209.081V212.908C44.692 213.728 45.0176 214.514 45.5971 215.093C46.1765 215.673 46.9625 215.998 47.782 215.998H112.658C113.751 215.998 114.799 216.432 115.571 217.205C116.344 217.977 116.778 219.025 116.778 220.118V251.648C116.778 252.417 116.563 253.171 116.156 253.824C115.75 254.478 115.169 255.004 114.479 255.344L100.273 262.345C97.5843 263.67 95.3202 265.721 93.737 268.267C92.1539 270.812 91.3149 273.75 91.315 276.747V296.065C91.315 296.407 91.3998 296.743 91.5619 297.043C91.7241 297.344 91.9584 297.6 92.2438 297.787C92.5292 297.975 92.8568 298.088 93.1971 298.118C93.5373 298.147 93.8796 298.092 94.193 297.956L125.093 284.589C128.321 283.193 131.8 282.473 135.317 282.473C138.833 282.473 142.312 283.193 145.54 284.589L176.44 297.956C176.753 298.092 177.096 298.147 177.436 298.118C177.776 298.088 178.104 297.975 178.389 297.787C178.675 297.6 178.909 297.344 179.071 297.043C179.233 296.743 179.318 296.407 179.318 296.065V276.747C179.318 273.75 178.479 270.812 176.896 268.267C175.313 265.721 173.049 263.67 170.36 262.345L156.154 255.344C155.464 255.004 154.883 254.478 154.477 253.824C154.07 253.171 153.855 252.417 153.855 251.648V220.118C153.855 219.025 154.289 217.977 155.062 217.205C155.834 216.432 156.882 215.998 157.975 215.998H222.851C223.257 215.998 223.659 215.919 224.034 215.763C224.409 215.608 224.75 215.381 225.038 215.094C225.325 214.807 225.553 214.466 225.708 214.091C225.864 213.716 225.944 213.314 225.944 212.908Z" fill="#5F99D7"/>
</g>
<defs>
<clipPath id="clip0_114_147">
<rect width="512" height="512" fill="white"/>
</clipPath>
</defs>
</svg>
