<svg width="25" height="25" viewBox="0 0 25 25" fill="none" xmlns="http://www.w3.org/2000/svg">
<g clip-path="url(#clip0_109_108)">
<path d="M13.2159 24.4529C19.7241 24.4529 25 19.177 25 12.6689C25 6.16071 19.7241 0.884804 13.2159 0.884804C6.70778 0.884804 1.43187 6.16071 1.43187 12.6689C1.43187 19.177 6.70778 24.4529 13.2159 24.4529Z" fill="url(#paint0_linear_109_108)"/>
<path d="M21.5134 6.47073C21.109 6.17372 20.6803 5.90127 20.231 5.65387C19.9835 5.20451 19.7111 4.77578 19.4141 4.37142C17.7646 2.12598 15.5633 0.889359 13.2159 0.889359C10.8685 0.889359 8.66725 2.12598 7.01779 4.37142C6.72073 4.77578 6.44833 5.20455 6.20093 5.65387C5.75156 5.90127 5.32284 6.17367 4.91848 6.47073C2.67303 8.12024 1.43642 10.3214 1.43642 12.6689C1.43642 15.0163 2.67303 17.2175 4.91848 18.867C5.32284 19.1641 5.75161 19.4365 6.20093 19.6839C6.44833 20.1332 6.72073 20.562 7.01779 20.9663C8.6673 23.2118 10.8685 24.4484 13.2159 24.4484C15.5633 24.4484 17.7646 23.2118 19.4141 20.9663C19.7111 20.562 19.9835 20.1332 20.231 19.6838C20.6803 19.4364 21.1091 19.164 21.5134 18.867C23.7588 17.2175 24.9954 15.0163 24.9954 12.6688C24.9954 10.3214 23.7588 8.12024 21.5134 6.47073ZM13.2159 23.8939C12.569 23.8939 11.8833 22.9302 11.3412 21.2859C11.9556 21.3581 12.5819 21.3956 13.2159 21.3956C13.8499 21.3956 14.4762 21.3581 15.0906 21.2859C14.5485 22.9302 13.8628 23.8939 13.2159 23.8939ZM13.2159 20.8411C12.515 20.8411 11.8292 20.7936 11.1635 20.7037C10.7941 19.3974 10.5258 17.8294 10.3723 16.1174C11.2913 16.1831 12.2447 16.217 13.2159 16.217C14.1872 16.217 15.1406 16.1831 16.0595 16.1174C15.9061 17.8294 15.6378 19.3974 15.2684 20.7037C14.6027 20.7936 13.9169 20.8411 13.2159 20.8411ZM13.2159 1.44392C13.8628 1.44392 14.5485 2.40759 15.0906 4.05191C14.4762 3.9796 13.8499 3.94215 13.2159 3.94215C12.5819 3.94215 11.9556 3.9796 11.3412 4.05191C11.8833 2.40754 12.569 1.44392 13.2159 1.44392ZM13.2159 4.49671C13.9169 4.49671 14.6027 4.54416 15.2684 4.63411C15.6378 5.94039 15.9061 7.50838 16.0595 9.22034C15.1406 9.15465 14.1872 9.12078 13.2159 9.12078C12.2447 9.12078 11.2913 9.15465 10.3723 9.22034C10.5258 7.50838 10.794 5.94039 11.1635 4.63411C11.8292 4.54416 12.515 4.49671 13.2159 4.49671ZM10.2223 12.6689C10.2223 11.6801 10.2579 10.7112 10.3267 9.7796C11.2583 9.71088 12.2272 9.67524 13.2159 9.67524C14.2047 9.67524 15.1736 9.71088 16.1052 9.7796C16.1739 10.7112 16.2096 11.6801 16.2096 12.6689C16.2096 13.6576 16.1739 14.6265 16.1052 15.5581C15.1736 15.6268 14.2047 15.6624 13.2159 15.6624C12.2272 15.6624 11.2583 15.6268 10.3267 15.5581C10.2579 14.6266 10.2223 13.6576 10.2223 12.6689ZM9.76735 15.5124C8.05539 15.359 6.48735 15.0908 5.18112 14.7213C5.09122 14.0556 5.04372 13.3698 5.04372 12.6689C5.04372 11.968 5.09117 11.2821 5.18112 10.6164C6.48735 10.247 8.05539 9.97877 9.76735 9.82529C9.70166 10.7442 9.66779 11.6976 9.66779 12.6689C9.66779 13.6401 9.70161 14.5935 9.76735 15.5124ZM16.6646 9.82534C18.3765 9.97877 19.9445 10.247 21.2508 10.6165C21.3407 11.2822 21.3882 11.968 21.3882 12.6689C21.3882 13.3698 21.3407 14.0557 21.2508 14.7214C19.9445 15.0908 18.3765 15.359 16.6646 15.5125C16.7302 14.5936 16.7641 13.6402 16.7641 12.6689C16.7641 11.6976 16.7302 10.7443 16.6646 9.82534ZM16.6201 9.26475C16.4741 7.58671 16.2195 6.03936 15.8691 4.72794C17.3152 4.98406 18.6524 5.44455 19.8198 6.065C20.4403 7.2324 20.9008 8.5696 21.1569 10.0157C19.8455 9.66534 18.2981 9.41078 16.6201 9.26475ZM9.81176 9.26475C8.13372 9.41078 6.58637 9.66534 5.27495 10.0157C5.53107 8.5696 5.99156 7.2324 6.612 6.065C7.77941 5.44455 9.11661 4.98406 10.5627 4.72794C10.2123 6.03936 9.95784 7.58671 9.81176 9.26475ZM4.59892 14.5436C2.9546 14.0015 1.99093 13.3158 1.99093 12.6689C1.99093 12.022 2.95455 11.3363 4.59892 10.7942C4.52666 11.4086 4.48916 12.0348 4.48916 12.6689C4.48916 13.3029 4.52666 13.9292 4.59892 14.5436ZM9.81176 16.073C9.95779 17.7511 10.2123 19.2984 10.5627 20.6098C9.11661 20.3537 7.77941 19.8932 6.612 19.2728C5.99156 18.1054 5.53107 16.7682 5.27495 15.3221C6.58642 15.6724 8.13377 15.927 9.81176 16.073ZM16.6201 16.073C18.2981 15.927 19.8455 15.6724 21.1569 15.3221C20.9008 16.7682 20.4403 18.1054 19.8198 19.2728C18.6524 19.8933 17.3152 20.3537 15.8691 20.6098C16.2195 19.2984 16.4741 17.751 16.6201 16.073ZM21.8329 10.7942C23.4772 11.3363 24.4409 12.022 24.4409 12.6689C24.4409 13.3158 23.4772 14.0015 21.8329 14.5436C21.9052 13.9292 21.9426 13.3029 21.9426 12.6689C21.9427 12.0348 21.9052 11.4086 21.8329 10.7942ZM24.3099 11.42C23.7673 10.9573 22.9072 10.5414 21.7492 10.1855C21.5475 8.90867 21.1906 7.6922 20.6909 6.57799C22.5869 7.81254 23.9055 9.50789 24.3099 11.42ZM19.3069 5.19392C18.1927 4.69426 16.9762 4.3373 15.6993 4.13558C15.3434 2.9775 14.9275 2.1174 14.4648 1.5748C16.377 1.97931 18.0723 3.29789 19.3069 5.19392ZM11.9671 1.57485C11.5044 2.11745 11.0885 2.97754 10.7326 4.13563C9.45573 4.3373 8.23921 4.69426 7.125 5.19392C8.35955 3.29789 10.0549 1.97931 11.9671 1.57485ZM5.74093 6.57794C5.24132 7.69215 4.88431 8.90867 4.68264 10.1855C3.52455 10.5414 2.66446 10.9573 2.12186 11.42C2.52632 9.50789 3.84495 7.81255 5.74093 6.57794ZM2.12186 13.9177C2.66446 14.3804 3.52455 14.7964 4.68264 15.1523C4.88431 16.4291 5.24132 17.6456 5.74093 18.7598C3.84495 17.5252 2.52632 15.8299 2.12186 13.9177ZM7.12495 20.1439C8.23916 20.6435 9.45568 21.0005 10.7325 21.2022C11.0884 22.3602 11.5044 23.2203 11.9671 23.7629C10.0549 23.3585 8.35955 22.0398 7.12495 20.1439ZM14.4647 23.7629C14.9274 23.2203 15.3434 22.3602 15.6993 21.2022C16.9761 21.0005 18.1926 20.6435 19.3069 20.1439C18.0723 22.0398 16.377 23.3585 14.4647 23.7629ZM20.6909 18.7598C21.1906 17.6456 21.5475 16.4291 21.7492 15.1523C22.9073 14.7964 23.7674 14.3805 24.3099 13.9178C23.9055 15.8299 22.5869 17.5252 20.6909 18.7598Z" fill="url(#paint1_linear_109_108)"/>
<path d="M9.16303 1.60064C6.21264 2.68132 3.81509 4.90814 2.50896 7.74181C2.35416 8.07765 2.27754 8.44422 2.27754 8.81402C2.27754 9.50279 2.55117 10.1633 3.03818 10.6504L3.27901 10.8912C4.35833 11.9705 5.82215 12.5769 7.34852 12.5769C7.57656 12.5769 7.76141 12.392 7.76141 12.164C7.76141 11.936 7.57656 11.7511 7.34852 11.7511H6.07936C5.49401 11.7511 5.01945 11.2766 5.01945 10.6912C5.01945 10.1059 5.49396 9.63132 6.07936 9.63132H7.07063C8.25926 9.63132 9.39921 9.15917 10.2397 8.31868L11.7702 6.78814C12.1035 6.45485 12.5555 6.2676 13.0269 6.2676C13.7087 6.2676 14.3304 5.8775 14.6271 5.26353C14.9906 4.51108 14.4424 3.6374 13.6068 3.6374H11.632C11.0514 3.6374 10.5807 3.16676 10.5807 2.58613C10.5807 1.85348 9.85107 1.34863 9.16303 1.60064Z" fill="url(#paint2_linear_109_108)"/>
<path d="M24.7257 10.1299C24.5629 9.38883 23.9003 8.86471 23.1417 8.86471H21.4805H20.5925C19.0833 8.86471 17.8598 10.0882 17.8598 11.5975V11.93C17.8598 13.2556 18.9345 14.3302 20.2601 14.3302C20.9341 14.3302 21.4805 14.8767 21.4805 15.5507V18.7377C21.4805 19.5681 22.5589 19.899 23.0204 19.2085C23.9795 17.7737 24.632 16.1163 24.8841 14.3302C24.9603 13.7877 25 13.2327 25 12.6689C25 11.7971 24.9052 10.9476 24.7257 10.1299Z" fill="url(#paint3_linear_109_108)"/>
<path d="M18.4873 2.12759C19.2821 3.71382 19.7301 5.50397 19.7301 7.39897C19.7301 13.9071 14.4542 19.183 7.94603 19.183C6.05102 19.183 4.26088 18.735 2.67465 17.9402C4.60946 21.8017 8.60279 24.4529 13.2159 24.4529C19.7241 24.4529 25 19.1771 25 12.6689C25 8.05573 22.3488 4.0624 18.4873 2.12759Z" fill="url(#paint4_linear_109_108)"/>
<path d="M19.1635 7.79946C18.5727 7.20863 17.104 7.69726 14.3079 10.3088L12.6739 10.1075L12.1461 9.56289C11.864 9.28078 11.4066 9.28078 11.1245 9.56289C11.0571 9.63034 11.0065 9.70799 10.9715 9.79074L10.5512 9.36794C10.2691 9.08583 9.81177 9.08583 9.52966 9.36794C9.4353 9.46231 9.37329 9.57642 9.34201 9.69686L8.71005 9.61897C8.55937 9.60039 8.38642 9.66931 8.25574 9.80005L7.17407 10.8817C7.0599 10.9959 7.06044 11.1603 7.1752 11.2098L10.4304 14.3908C9.48137 15.4948 8.61427 16.5865 7.94853 17.5274L6.32804 17.3074C6.26294 17.2986 6.18775 17.3281 6.13098 17.3849L5.62618 17.8897C5.52873 17.9872 5.52 18.127 5.6079 18.1834L6.8249 19.3644C6.62059 19.8113 6.56427 20.1279 6.69971 20.2633L10.5968 24.1604C11.4392 24.3516 12.3156 24.453 13.2159 24.453C19.4108 24.453 24.489 19.6726 24.9635 13.5995L19.1635 7.79946Z" fill="url(#paint5_linear_109_108)"/>
<path d="M10.0404 10.601C10.4394 10.601 10.7628 10.2776 10.7628 9.87868C10.7628 9.47973 10.4394 9.15633 10.0404 9.15633C9.64149 9.15633 9.31808 9.47973 9.31808 9.87868C9.31808 10.2776 9.64149 10.601 10.0404 10.601Z" fill="url(#paint6_linear_109_108)"/>
<path d="M10.0404 10.4816C10.3734 10.4816 10.6433 10.2116 10.6433 9.87868C10.6433 9.54571 10.3734 9.27579 10.0404 9.27579C9.70747 9.27579 9.43755 9.54571 9.43755 9.87868C9.43755 10.2116 9.70747 10.4816 10.0404 10.4816Z" fill="url(#paint7_linear_109_108)"/>
<path d="M10.7258 9.65025C10.6915 9.75343 10.6333 9.85044 10.5512 9.9326C10.2691 10.2147 9.81177 10.2147 9.52966 9.9326C9.44751 9.85044 9.38937 9.75343 9.35505 9.65025C9.27152 9.90147 9.32971 10.1895 9.52966 10.3895C9.81177 10.6716 10.2691 10.6716 10.5512 10.3895C10.7512 10.1895 10.8094 9.90152 10.7258 9.65025Z" fill="url(#paint8_linear_109_108)"/>
<path d="M10.0404 10.601C10.4394 10.601 10.7628 10.2776 10.7628 9.87868C10.7628 9.47973 10.4394 9.15633 10.0404 9.15633C9.64149 9.15633 9.31808 9.47973 9.31808 9.87868C9.31808 10.2776 9.64149 10.601 10.0404 10.601Z" fill="url(#paint9_linear_109_108)"/>
<path d="M12.1461 10.5844C11.864 10.8665 11.4066 10.8665 11.1245 10.5844C10.8424 10.3023 10.8424 9.84495 11.1245 9.56285C11.4066 9.28074 11.864 9.28074 12.1461 9.56285C12.4281 9.84495 12.4281 10.3024 12.1461 10.5844Z" fill="url(#paint10_linear_109_108)"/>
<path d="M11.6353 10.6766C11.9683 10.6766 12.2382 10.4066 12.2382 10.0737C12.2382 9.74071 11.9683 9.47079 11.6353 9.47079C11.3023 9.47079 11.0324 9.74071 11.0324 10.0737C11.0324 10.4066 11.3023 10.6766 11.6353 10.6766Z" fill="url(#paint11_linear_109_108)"/>
<path d="M12.3207 9.84525C12.2864 9.94843 12.2282 10.0454 12.1461 10.1276C11.864 10.4097 11.4066 10.4097 11.1245 10.1276C11.0424 10.0454 10.9842 9.94843 10.9499 9.84525C10.8664 10.0965 10.9246 10.3845 11.1245 10.5845C11.4066 10.8666 11.864 10.8666 12.1461 10.5845C12.346 10.3845 12.4042 10.0965 12.3207 9.84525Z" fill="url(#paint12_linear_109_108)"/>
<path d="M12.1461 10.5844C11.864 10.8665 11.4066 10.8665 11.1245 10.5844C10.8424 10.3023 10.8424 9.84495 11.1245 9.56285C11.4066 9.28074 11.864 9.28074 12.1461 9.56285C12.4281 9.84495 12.4281 10.3024 12.1461 10.5844Z" fill="url(#paint13_linear_109_108)"/>
<path d="M17.0843 17.645C17.4833 17.645 17.8067 17.3215 17.8067 16.9226C17.8067 16.5237 17.4833 16.2002 17.0843 16.2002C16.6854 16.2002 16.362 16.5237 16.362 16.9226C16.362 17.3215 16.6854 17.645 17.0843 17.645Z" fill="url(#paint14_linear_109_108)"/>
<path d="M17.0843 17.5255C17.4173 17.5255 17.6872 17.2556 17.6872 16.9226C17.6872 16.5896 17.4173 16.3197 17.0843 16.3197C16.7513 16.3197 16.4814 16.5896 16.4814 16.9226C16.4814 17.2556 16.7513 17.5255 17.0843 17.5255Z" fill="url(#paint15_linear_109_108)"/>
<path d="M17.3127 16.2372C17.2096 16.2715 17.1126 16.3297 17.0304 16.4118C16.7483 16.6939 16.7483 17.1512 17.0304 17.4333C17.1126 17.5155 17.2096 17.5736 17.3127 17.6079C17.0615 17.6915 16.7735 17.6333 16.5735 17.4333C16.2914 17.1512 16.2914 16.6939 16.5735 16.4118C16.7735 16.2118 17.0615 16.1537 17.3127 16.2372Z" fill="url(#paint16_linear_109_108)"/>
<path d="M17.0843 17.645C17.4833 17.645 17.8067 17.3215 17.8067 16.9226C17.8067 16.5237 17.4833 16.2002 17.0843 16.2002C16.6854 16.2002 16.362 16.5237 16.362 16.9226C16.362 17.3215 16.6854 17.645 17.0843 17.645Z" fill="url(#paint17_linear_109_108)"/>
<path d="M16.3786 14.817C16.0965 15.0991 16.0965 15.5564 16.3786 15.8385C16.6607 16.1206 17.118 16.1206 17.4001 15.8385C17.6823 15.5564 17.6823 15.0991 17.4001 14.817C17.118 14.5349 16.6607 14.5349 16.3786 14.817Z" fill="url(#paint18_linear_109_108)"/>
<path d="M16.8894 15.9306C17.2223 15.9306 17.4923 15.6607 17.4923 15.3277C17.4923 14.9948 17.2223 14.7249 16.8894 14.7249C16.5564 14.7249 16.2865 14.9948 16.2865 15.3277C16.2865 15.6607 16.5564 15.9306 16.8894 15.9306Z" fill="url(#paint19_linear_109_108)"/>
<path d="M17.1178 14.6423C17.0146 14.6766 16.9176 14.7348 16.8354 14.8169C16.5533 15.099 16.5533 15.5564 16.8354 15.8385C16.9176 15.9206 17.0146 15.9788 17.1178 16.0131C16.8666 16.0966 16.5785 16.0384 16.3786 15.8385C16.0965 15.5564 16.0965 15.099 16.3786 14.8169C16.5785 14.617 16.8665 14.5588 17.1178 14.6423Z" fill="url(#paint20_linear_109_108)"/>
<path d="M16.3786 14.817C16.0965 15.0991 16.0965 15.5564 16.3786 15.8385C16.6607 16.1206 17.118 16.1206 17.4001 15.8385C17.6823 15.5564 17.6823 15.0991 17.4001 14.817C17.118 14.5349 16.6607 14.5349 16.3786 14.817Z" fill="url(#paint21_linear_109_108)"/>
<path d="M5.60789 18.1834L7.15622 19.1782L8.70451 17.6299L6.32804 17.3074C6.26294 17.2986 6.18774 17.3281 6.13098 17.3849L5.62618 17.8897C5.52872 17.9872 5.52005 18.1269 5.60789 18.1834Z" fill="url(#paint22_linear_109_108)"/>
<path d="M5.77721 17.7387L5.62623 17.8897C5.52877 17.9871 5.52005 18.1269 5.60794 18.1834L7.15627 19.1782L8.35074 17.9837L5.97426 17.6612C5.90917 17.6524 5.83397 17.682 5.77721 17.7387Z" fill="url(#paint23_linear_109_108)"/>
<path d="M8.77961 21.3551L7.78481 19.8068L9.33309 18.2585L9.65559 20.635C9.66441 20.7001 9.63485 20.7753 9.57814 20.832L9.07333 21.3368C8.97583 21.4343 8.83608 21.4429 8.77961 21.3551Z" fill="url(#paint24_linear_109_108)"/>
<path d="M9.22432 21.1858L9.07333 21.3368C8.97588 21.4342 8.83608 21.4429 8.77961 21.355L7.78481 19.8067L8.97927 18.6123L9.30177 20.9887C9.31064 21.0538 9.28103 21.1291 9.22432 21.1858Z" fill="url(#paint25_linear_109_108)"/>
<path d="M7.17519 11.2098L12.1023 13.3332L15.0368 10.3987L8.71005 9.61902C8.55936 9.60044 8.38642 9.66936 8.25573 9.8001L7.17407 10.8818C7.05995 10.9958 7.06049 11.1603 7.17519 11.2098Z" fill="url(#paint26_linear_109_108)"/>
<path d="M7.55858 10.4972L7.17407 10.8817C7.05991 10.9959 7.06045 11.1603 7.1752 11.2098L12.1023 13.3332L14.3396 11.0958L8.0129 10.3162C7.86221 10.2975 7.68932 10.3665 7.55858 10.4972Z" fill="url(#paint27_linear_109_108)"/>
<path d="M10.3744 10.6072L8.0129 10.3161C7.86221 10.2976 7.68932 10.3665 7.55858 10.4972L7.17407 10.8817C7.05991 10.9959 7.06045 11.1603 7.1752 11.2098L8.98976 11.9918L10.3744 10.6072Z" fill="url(#paint28_linear_109_108)"/>
<path d="M7.1752 11.2098L12.1023 13.3332L13.1114 12.3241L7.64913 10.4067L7.17413 10.8817C7.05996 10.9958 7.0605 11.1603 7.1752 11.2098Z" fill="url(#paint29_linear_109_108)"/>
<path d="M15.7532 19.7878L13.6299 14.8607L16.5644 11.9262L17.344 18.2529C17.3626 18.4036 17.2937 18.5766 17.1629 18.7073L16.0813 19.7889C15.9672 19.903 15.8027 19.9025 15.7532 19.7878Z" fill="url(#paint30_linear_109_108)"/>
<path d="M16.4658 19.4044L16.0813 19.7889C15.9671 19.9031 15.8026 19.9025 15.7532 19.7878L13.6299 14.8607L15.8672 12.6234L16.6469 18.9501C16.6654 19.1008 16.5965 19.2737 16.4658 19.4044Z" fill="url(#paint31_linear_109_108)"/>
<path d="M16.3559 16.5886L16.6469 18.9501C16.6655 19.1008 16.5966 19.2737 16.4658 19.4044L16.0813 19.7889C15.9672 19.9031 15.8027 19.9026 15.7533 19.7878L14.9713 17.9732L16.3559 16.5886Z" fill="url(#paint32_linear_109_108)"/>
<path d="M15.7532 19.7878L13.6299 14.8607L14.639 13.8516L16.5563 19.3139L16.0813 19.7889C15.9672 19.903 15.8027 19.9025 15.7532 19.7878Z" fill="url(#paint33_linear_109_108)"/>
<path d="M15.7024 13.6382C12.2606 17.08 7.35628 20.9198 6.69971 20.2632C6.04314 19.6067 9.88295 14.7023 13.3247 11.2605C16.7665 7.81877 18.5069 7.14284 19.1635 7.79941C19.8201 8.45603 19.1442 10.1965 15.7024 13.6382Z" fill="url(#paint34_linear_109_108)"/>
<path d="M15.4474 13.5376C12.1736 16.8114 7.5624 20.5173 7.00407 19.9589C6.44573 19.4005 10.1517 14.7894 13.4253 11.5156C16.6991 8.24191 18.3009 7.54539 18.8592 8.10372C19.4176 8.66211 18.721 10.2639 15.4474 13.5376Z" fill="url(#paint35_linear_109_108)"/>
<path d="M15.7024 13.6382C19.1442 10.1964 19.8201 8.45603 19.1635 7.79946L6.69971 20.2633C7.35632 20.9199 12.2606 17.08 15.7024 13.6382Z" fill="url(#paint36_linear_109_108)"/>
<path d="M16.2321 9.07608C16.0213 9.2596 15.8001 9.4572 15.5681 9.66951C15.5088 9.72382 15.5142 9.80809 15.5784 9.81965C15.9752 9.89112 16.3334 10.0649 16.6157 10.3473C16.898 10.6296 17.0719 10.9878 17.1433 11.3846C17.1549 11.4488 17.2392 11.4542 17.2935 11.3949C17.5058 11.1629 17.7034 10.9417 17.8869 10.7309C18.0118 10.5874 18.0656 10.407 18.0252 10.2613C17.9368 9.94299 17.7767 9.65578 17.542 9.42103C17.3072 9.18622 17.0199 9.02617 16.7017 8.93779C16.556 8.8973 16.3755 8.95112 16.2321 9.07608Z" fill="url(#paint37_linear_109_108)"/>
<path d="M17.8868 10.7309C17.7255 10.9167 17.5529 11.1103 17.3691 11.3123C17.3441 11.3397 17.3191 11.3672 17.2936 11.3951C17.2392 11.4544 17.1549 11.449 17.1431 11.3848C17.0721 10.9877 16.898 10.6294 16.6157 10.3471C16.599 10.3304 16.5824 10.3142 16.5652 10.299C16.3647 10.1132 16.1294 9.97892 15.8716 9.89363C16.1034 9.68235 16.3235 9.48529 16.5338 9.30245C16.6774 9.17745 16.8578 9.12353 17.0034 9.16422C17.1765 9.21225 17.3402 9.28137 17.4917 9.37255C17.5088 9.38823 17.5255 9.40441 17.5422 9.42108C17.777 9.65588 17.9368 9.94314 18.025 10.2613C18.0657 10.4069 18.0118 10.5873 17.8868 10.7309Z" fill="url(#paint38_linear_109_108)"/>
<path d="M17.1433 11.3846C17.1549 11.4488 17.2392 11.4542 17.2935 11.3949C17.5058 11.1629 17.7034 10.9417 17.8869 10.7309C18.0118 10.5874 18.0656 10.407 18.0252 10.2613C17.9368 9.94299 17.7767 9.65578 17.542 9.42103L16.6157 10.3473C16.898 10.6296 17.0719 10.9878 17.1433 11.3846Z" fill="url(#paint39_linear_109_108)"/>
<path d="M7.85638 19.2102L7.7528 19.1066C7.66618 19.02 7.69589 18.8535 7.81741 18.7447L9.60638 17.1432C9.68496 17.0729 9.78912 17.0618 9.84515 17.1178C9.90118 17.1739 9.8901 17.278 9.81971 17.3566L8.21824 19.1456C8.10951 19.2671 7.94299 19.2968 7.85638 19.2102Z" fill="url(#paint40_linear_109_108)"/>
<path d="M1.56637 22.8702C1.46353 22.8702 1.36456 22.864 1.2702 22.8516C1.1375 22.8341 1.05054 22.7039 1.08632 22.5749L1.18446 22.2207C1.21279 22.1185 1.30995 22.0506 1.41549 22.061C1.61373 22.0804 1.85961 22.059 2.14211 21.9972C2.25632 21.9722 2.37025 22.0415 2.40064 22.1544L2.4952 22.5055C2.52789 22.627 2.45167 22.7501 2.32882 22.7774C2.05132 22.8391 1.79564 22.8702 1.56637 22.8702ZM3.32539 22.2244L3.18936 21.8876C3.14466 21.7769 3.19647 21.6513 3.30613 21.6041C3.5527 21.4979 3.81373 21.3739 4.08598 21.2335C4.19255 21.1785 4.32378 21.2192 4.3802 21.3251L4.55108 21.6455C4.60873 21.7536 4.56642 21.8881 4.45755 21.9443C4.16436 22.0955 3.88231 22.2295 3.6149 22.3443C3.50201 22.3928 3.37147 22.3384 3.32539 22.2244ZM0.353726 21.9435C0.229461 21.9961 0.0865686 21.9256 0.0547549 21.7944C0.0183824 21.6442 0 21.4801 0 21.3039C0 21.1185 0.0203431 20.9156 0.0606863 20.6985C0.0836765 20.5747 0.205196 20.4947 0.327696 20.5238L0.681422 20.6079C0.794412 20.6348 0.867255 20.7455 0.846471 20.8598C0.816961 21.0223 0.802059 21.171 0.802059 21.3038C0.802059 21.3961 0.809265 21.4803 0.823432 21.5558C0.842598 21.6576 0.789314 21.7589 0.693873 21.7993L0.353726 21.9435ZM5.30382 21.2217L5.11873 20.9093C5.0575 20.8059 5.09049 20.6725 5.19324 20.6102C5.43559 20.4634 5.68539 20.3059 5.93956 20.1396C6.04025 20.0737 6.17534 20.1017 6.24201 20.2018L6.44319 20.5042C6.51083 20.6058 6.48226 20.7429 6.3801 20.8098C6.11696 20.982 5.85804 21.1453 5.60662 21.2976C5.50206 21.3609 5.36613 21.3269 5.30382 21.2217ZM7.46069 20.0696C7.36142 20.1405 7.22348 20.1175 7.15324 20.0178L7.46069 20.0696ZM0.929608 19.8159L0.590637 19.6855C0.475735 19.6413 0.419118 19.5114 0.46603 19.3976C0.576814 19.1288 0.707598 18.8445 0.856716 18.5483C0.911814 18.4389 1.04603 18.3952 1.15471 18.4519L1.47672 18.6199C1.58299 18.6753 1.6249 18.806 1.57103 18.913C1.43333 19.1867 1.31284 19.4484 1.21098 19.6948C1.16544 19.805 1.04088 19.8588 0.929608 19.8159ZM1.88627 17.8786L1.57255 17.6957C1.46706 17.6343 1.43186 17.4987 1.49436 17.3938C1.49637 17.3905 1.49838 17.3871 1.50034 17.3838C1.56289 17.279 1.69917 17.2451 1.80333 17.3087L2.11333 17.4979C2.21608 17.5606 2.24897 17.6945 2.18726 17.7978C2.18652 17.7991 2.18574 17.8003 2.185 17.8016C2.12338 17.905 1.99025 17.9392 1.88627 17.8786ZM19.5361 7.60706L19.2386 7.39882C19.1399 7.32976 19.1152 7.19392 19.1836 7.0948C19.3555 6.84564 19.5201 6.59946 19.6753 6.35941C19.7407 6.25838 19.8752 6.22936 19.9768 6.29382L20.2834 6.48848C20.3864 6.55392 20.4163 6.69064 20.35 6.79314C20.1898 7.04083 20.0201 7.29461 19.8429 7.55137C19.7737 7.65181 19.636 7.67701 19.5361 7.60706ZM20.7326 5.7524L20.4192 5.56897C20.3155 5.50833 20.2799 5.37534 20.3394 5.27108C20.4908 5.00569 20.6293 4.74833 20.7532 4.50221C20.807 4.39524 20.9364 4.35162 21.0443 4.40373L21.3713 4.56176C21.4817 4.61515 21.5272 4.74828 21.4721 4.85789C21.3409 5.11877 21.1945 5.39103 21.0346 5.67118C20.9739 5.7774 20.8382 5.81417 20.7326 5.7524ZM21.7195 3.76495L21.3811 3.63314C21.27 3.58985 21.2146 3.46574 21.2548 3.35348C21.3577 3.06618 21.4312 2.80358 21.4747 2.56882C21.4957 2.45559 21.6011 2.37868 21.7155 2.39201L22.0769 2.43426C22.2023 2.44892 22.2901 2.56603 22.2677 2.69029C22.2162 2.97745 22.1285 3.29363 22.0059 3.63485C21.9642 3.75093 21.8344 3.80971 21.7195 3.76495ZM18.731 1.70245L18.5807 1.37172C18.53 1.26005 18.5806 1.12794 18.6933 1.07936C19.0097 0.942989 19.3085 0.832058 19.5859 0.747842C19.7054 0.711568 19.8311 0.781176 19.8628 0.902058L19.955 1.25358C19.9848 1.36716 19.9202 1.48431 19.8079 1.51863C19.5644 1.59299 19.3 1.69147 19.0178 1.81284C18.9081 1.86005 18.7804 1.81122 18.731 1.70245ZM21.6354 1.64627C21.546 1.68069 21.4426 1.65456 21.385 1.57799C21.3717 1.56029 21.3573 1.54377 21.3419 1.52833C21.2232 1.40975 21.0273 1.34946 20.7593 1.34907H20.7517V0.547058V0.948088L20.7522 0.777107C20.7525 0.647989 20.864 0.545735 20.9925 0.558823C21.3735 0.597646 21.6803 0.732548 21.909 0.961176C21.9787 1.03083 22.04 1.10858 22.0926 1.19363C22.1645 1.3099 22.1109 1.46328 21.9834 1.51235L21.6354 1.64627Z" fill="url(#paint41_linear_109_108)"/>
<path d="M8.11499 4.53887C8.49331 4.53887 8.79999 4.23218 8.79999 3.85387C8.79999 3.47555 8.49331 3.16887 8.11499 3.16887C7.73668 3.16887 7.42999 3.47555 7.42999 3.85387C7.42999 4.23218 7.73668 4.53887 8.11499 4.53887Z" fill="url(#paint42_linear_109_108)"/>
<path d="M4.46544 9.60951C4.84376 9.60951 5.15044 9.30282 5.15044 8.92451C5.15044 8.54619 4.84376 8.23951 4.46544 8.23951C4.08713 8.23951 3.78044 8.54619 3.78044 8.92451C3.78044 9.30282 4.08713 9.60951 4.46544 9.60951Z" fill="url(#paint43_linear_109_108)"/>
<path d="M23.1429 11.3615C23.5213 11.3615 23.8279 11.0548 23.8279 10.6765C23.8279 10.2982 23.5213 9.99152 23.1429 9.99152C22.7646 9.99152 22.4579 10.2982 22.4579 10.6765C22.4579 11.0548 22.7646 11.3615 23.1429 11.3615Z" fill="url(#paint44_linear_109_108)"/>
</g>
<defs>
<linearGradient id="paint0_linear_109_108" x1="7.50942" y1="6.9624" x2="21.7921" y2="21.245" gradientUnits="userSpaceOnUse">
<stop stop-color="#00AEFC"/>
<stop offset="1" stop-color="#3F3CEE"/>
</linearGradient>
<linearGradient id="paint1_linear_109_108" x1="15.017" y1="25.6427" x2="10.7768" y2="-4.90084" gradientUnits="userSpaceOnUse">
<stop stop-color="#00AEFC" stop-opacity="0"/>
<stop offset="1" stop-color="#18CFFC"/>
</linearGradient>
<linearGradient id="paint2_linear_109_108" x1="9.51401" y1="7.94539" x2="28.0809" y2="21.1194" gradientUnits="userSpaceOnUse">
<stop stop-color="#E5F3FF"/>
<stop offset="1" stop-color="#B3CCFF"/>
</linearGradient>
<linearGradient id="paint3_linear_109_108" x1="19.6493" y1="13.6741" x2="27.9697" y2="15.1378" gradientUnits="userSpaceOnUse">
<stop stop-color="#E5F3FF"/>
<stop offset="1" stop-color="#B3CCFF"/>
</linearGradient>
<linearGradient id="paint4_linear_109_108" x1="17.1069" y1="10.3398" x2="25.7687" y2="-6.5827" gradientUnits="userSpaceOnUse">
<stop stop-color="#3F3CEE" stop-opacity="0"/>
<stop offset="1" stop-color="#2F43BC"/>
</linearGradient>
<linearGradient id="paint5_linear_109_108" x1="18.3545" y1="19.4542" x2="12.3572" y2="13.457" gradientUnits="userSpaceOnUse">
<stop stop-color="#3F3CEE" stop-opacity="0"/>
<stop offset="1" stop-color="#2F43BC"/>
</linearGradient>
<linearGradient id="paint6_linear_109_108" x1="10.0482" y1="9.49023" x2="10.0482" y2="10.8132" gradientUnits="userSpaceOnUse">
<stop stop-color="#F9F7FC"/>
<stop offset="1" stop-color="#F0DDFC"/>
</linearGradient>
<linearGradient id="paint7_linear_109_108" x1="10.0482" y1="10.2061" x2="10.0482" y2="9.28177" gradientUnits="userSpaceOnUse">
<stop stop-color="#E9EDF5" stop-opacity="0"/>
<stop offset="1" stop-color="white"/>
</linearGradient>
<linearGradient id="paint8_linear_109_108" x1="9.87023" y1="10.0859" x2="11.8779" y2="9.48226" gradientUnits="userSpaceOnUse">
<stop stop-color="#F0DDFC" stop-opacity="0"/>
<stop offset="0.2889" stop-color="#C8B7E0" stop-opacity="0.289"/>
<stop offset="0.5915" stop-color="#A595C8" stop-opacity="0.592"/>
<stop offset="0.8395" stop-color="#8F81B8" stop-opacity="0.84"/>
<stop offset="1" stop-color="#8779B3"/>
</linearGradient>
<linearGradient id="paint9_linear_109_108" x1="10.1135" y1="9.50707" x2="9.99523" y2="10.1687" gradientUnits="userSpaceOnUse">
<stop stop-color="#F0DDFC" stop-opacity="0"/>
<stop offset="0.2889" stop-color="#C8B7E0" stop-opacity="0.289"/>
<stop offset="0.5915" stop-color="#A595C8" stop-opacity="0.592"/>
<stop offset="0.8395" stop-color="#8F81B8" stop-opacity="0.84"/>
<stop offset="1" stop-color="#8779B3"/>
</linearGradient>
<linearGradient id="paint10_linear_109_108" x1="11.6429" y1="9.68517" x2="11.6428" y2="11.0081" gradientUnits="userSpaceOnUse">
<stop stop-color="#F9F7FC"/>
<stop offset="1" stop-color="#F0DDFC"/>
</linearGradient>
<linearGradient id="paint11_linear_109_108" x1="11.6429" y1="10.401" x2="11.6428" y2="9.47671" gradientUnits="userSpaceOnUse">
<stop stop-color="#E9EDF5" stop-opacity="0"/>
<stop offset="1" stop-color="white"/>
</linearGradient>
<linearGradient id="paint12_linear_109_108" x1="11.4649" y1="10.2808" x2="13.4725" y2="9.6772" gradientUnits="userSpaceOnUse">
<stop stop-color="#F0DDFC" stop-opacity="0"/>
<stop offset="0.2889" stop-color="#C8B7E0" stop-opacity="0.289"/>
<stop offset="0.5915" stop-color="#A595C8" stop-opacity="0.592"/>
<stop offset="0.8395" stop-color="#8F81B8" stop-opacity="0.84"/>
<stop offset="1" stop-color="#8779B3"/>
</linearGradient>
<linearGradient id="paint13_linear_109_108" x1="11.7082" y1="9.70198" x2="11.5898" y2="10.3636" gradientUnits="userSpaceOnUse">
<stop stop-color="#F0DDFC" stop-opacity="0"/>
<stop offset="0.2889" stop-color="#C8B7E0" stop-opacity="0.289"/>
<stop offset="0.5915" stop-color="#A595C8" stop-opacity="0.592"/>
<stop offset="0.8395" stop-color="#8F81B8" stop-opacity="0.84"/>
<stop offset="1" stop-color="#8779B3"/>
</linearGradient>
<linearGradient id="paint14_linear_109_108" x1="17.4744" y1="16.9165" x2="16.1515" y2="16.9165" gradientUnits="userSpaceOnUse">
<stop stop-color="#F9F7FC"/>
<stop offset="1" stop-color="#F0DDFC"/>
</linearGradient>
<linearGradient id="paint15_linear_109_108" x1="16.7585" y1="16.9165" x2="17.6829" y2="16.9165" gradientUnits="userSpaceOnUse">
<stop stop-color="#E9EDF5" stop-opacity="0"/>
<stop offset="1" stop-color="white"/>
</linearGradient>
<linearGradient id="paint16_linear_109_108" x1="16.8788" y1="17.0945" x2="17.4824" y2="15.0868" gradientUnits="userSpaceOnUse">
<stop stop-color="#F0DDFC" stop-opacity="0"/>
<stop offset="0.2889" stop-color="#C8B7E0" stop-opacity="0.289"/>
<stop offset="0.5915" stop-color="#A595C8" stop-opacity="0.592"/>
<stop offset="0.8395" stop-color="#8F81B8" stop-opacity="0.84"/>
<stop offset="1" stop-color="#8779B3"/>
</linearGradient>
<linearGradient id="paint17_linear_109_108" x1="17.4576" y1="16.8511" x2="16.796" y2="16.9694" gradientUnits="userSpaceOnUse">
<stop stop-color="#F0DDFC" stop-opacity="0"/>
<stop offset="0.2889" stop-color="#C8B7E0" stop-opacity="0.289"/>
<stop offset="0.5915" stop-color="#A595C8" stop-opacity="0.592"/>
<stop offset="0.8395" stop-color="#8F81B8" stop-opacity="0.84"/>
<stop offset="1" stop-color="#8779B3"/>
</linearGradient>
<linearGradient id="paint18_linear_109_108" x1="17.2795" y1="15.3218" x2="15.9566" y2="15.3218" gradientUnits="userSpaceOnUse">
<stop stop-color="#F9F7FC"/>
<stop offset="1" stop-color="#F0DDFC"/>
</linearGradient>
<linearGradient id="paint19_linear_109_108" x1="16.5636" y1="15.3218" x2="17.488" y2="15.3219" gradientUnits="userSpaceOnUse">
<stop stop-color="#E9EDF5" stop-opacity="0"/>
<stop offset="1" stop-color="white"/>
</linearGradient>
<linearGradient id="paint20_linear_109_108" x1="16.6839" y1="15.4998" x2="17.2875" y2="13.4922" gradientUnits="userSpaceOnUse">
<stop stop-color="#F0DDFC" stop-opacity="0"/>
<stop offset="0.2889" stop-color="#C8B7E0" stop-opacity="0.289"/>
<stop offset="0.5915" stop-color="#A595C8" stop-opacity="0.592"/>
<stop offset="0.8395" stop-color="#8F81B8" stop-opacity="0.84"/>
<stop offset="1" stop-color="#8779B3"/>
</linearGradient>
<linearGradient id="paint21_linear_109_108" x1="17.2627" y1="15.2565" x2="16.601" y2="15.3748" gradientUnits="userSpaceOnUse">
<stop stop-color="#F0DDFC" stop-opacity="0"/>
<stop offset="0.2889" stop-color="#C8B7E0" stop-opacity="0.289"/>
<stop offset="0.5915" stop-color="#A595C8" stop-opacity="0.592"/>
<stop offset="0.8395" stop-color="#8F81B8" stop-opacity="0.84"/>
<stop offset="1" stop-color="#8779B3"/>
</linearGradient>
<linearGradient id="paint22_linear_109_108" x1="7.15202" y1="17.7121" x2="6.98237" y2="18.8462" gradientUnits="userSpaceOnUse">
<stop stop-color="#FFDA45"/>
<stop offset="0.3043" stop-color="#FFCE3E"/>
<stop offset="0.8558" stop-color="#FFAE2B"/>
<stop offset="1" stop-color="#FFA425"/>
</linearGradient>
<linearGradient id="paint23_linear_109_108" x1="6.76143" y1="18.1696" x2="8.44472" y2="16.4499" gradientUnits="userSpaceOnUse">
<stop stop-color="#FFDA45" stop-opacity="0"/>
<stop offset="1" stop-color="#B53759"/>
</linearGradient>
<linearGradient id="paint24_linear_109_108" x1="9.25333" y1="19.8134" x2="8.11929" y2="19.9831" gradientUnits="userSpaceOnUse">
<stop stop-color="#FFDA45"/>
<stop offset="0.3043" stop-color="#FFCE3E"/>
<stop offset="0.8558" stop-color="#FFAE2B"/>
<stop offset="1" stop-color="#FFA425"/>
</linearGradient>
<linearGradient id="paint25_linear_109_108" x1="8.79586" y1="20.204" x2="10.5155" y2="18.5207" gradientUnits="userSpaceOnUse">
<stop stop-color="#FFDA45" stop-opacity="0"/>
<stop offset="1" stop-color="#B53759"/>
</linearGradient>
<linearGradient id="paint26_linear_109_108" x1="11.3246" y1="10.2707" x2="9.56476" y2="13.2123" gradientUnits="userSpaceOnUse">
<stop stop-color="#FFDA45"/>
<stop offset="0.3043" stop-color="#FFCE3E"/>
<stop offset="0.8558" stop-color="#FFAE2B"/>
<stop offset="1" stop-color="#FFA425"/>
</linearGradient>
<linearGradient id="paint27_linear_109_108" x1="9.95039" y1="12.1901" x2="13.568" y2="6.79874" gradientUnits="userSpaceOnUse">
<stop stop-color="#FFDA45" stop-opacity="0"/>
<stop offset="1" stop-color="#B53759"/>
</linearGradient>
<linearGradient id="paint28_linear_109_108" x1="9.05378" y1="11.2554" x2="10.8019" y2="13.4478" gradientUnits="userSpaceOnUse">
<stop stop-color="#F0DDFC" stop-opacity="0"/>
<stop offset="0.2889" stop-color="#C8B7E0" stop-opacity="0.289"/>
<stop offset="0.5915" stop-color="#A595C8" stop-opacity="0.592"/>
<stop offset="0.8395" stop-color="#8F81B8" stop-opacity="0.84"/>
<stop offset="1" stop-color="#8779B3"/>
</linearGradient>
<linearGradient id="paint29_linear_109_108" x1="10.0299" y1="11.8061" x2="9.29912" y2="13.1632" gradientUnits="userSpaceOnUse">
<stop stop-color="#FFDA45" stop-opacity="0"/>
<stop offset="1" stop-color="#B53759"/>
</linearGradient>
<linearGradient id="paint30_linear_109_108" x1="16.6939" y1="15.6401" x2="13.7523" y2="17.3999" gradientUnits="userSpaceOnUse">
<stop stop-color="#FFDA45"/>
<stop offset="0.3043" stop-color="#FFCE3E"/>
<stop offset="0.8558" stop-color="#FFAE2B"/>
<stop offset="1" stop-color="#FFA425"/>
</linearGradient>
<linearGradient id="paint31_linear_109_108" x1="15.1283" y1="16.7769" x2="20.5197" y2="13.1593" gradientUnits="userSpaceOnUse">
<stop stop-color="#FFDA45" stop-opacity="0"/>
<stop offset="1" stop-color="#B53759"/>
</linearGradient>
<linearGradient id="paint32_linear_109_108" x1="15.9149" y1="18.0749" x2="13.7226" y2="16.3268" gradientUnits="userSpaceOnUse">
<stop stop-color="#FFDA45" stop-opacity="0"/>
<stop offset="1" stop-color="#B53759"/>
</linearGradient>
<linearGradient id="paint33_linear_109_108" x1="15.1586" y1="16.9348" x2="13.8014" y2="17.6656" gradientUnits="userSpaceOnUse">
<stop stop-color="#FFDA45" stop-opacity="0"/>
<stop offset="1" stop-color="#B53759"/>
</linearGradient>
<linearGradient id="paint34_linear_109_108" x1="12.4504" y1="13.5515" x2="13.9382" y2="15.0393" gradientUnits="userSpaceOnUse">
<stop stop-color="#E5F3FF"/>
<stop offset="1" stop-color="#B3CCFF"/>
</linearGradient>
<linearGradient id="paint35_linear_109_108" x1="13.4814" y1="14.5228" x2="11.3643" y2="12.6326" gradientUnits="userSpaceOnUse">
<stop stop-color="#E5F3FF" stop-opacity="0"/>
<stop offset="1" stop-color="white"/>
</linearGradient>
<linearGradient id="paint36_linear_109_108" x1="12.8259" y1="15.9456" x2="16.1202" y2="-7.05056" gradientUnits="userSpaceOnUse">
<stop stop-color="#B3CCFF" stop-opacity="0"/>
<stop offset="1" stop-color="#9FB0CB"/>
</linearGradient>
<linearGradient id="paint37_linear_109_108" x1="16.3529" y1="9.25615" x2="17.6485" y2="11.2921" gradientUnits="userSpaceOnUse">
<stop stop-color="#8B788A"/>
<stop offset="1" stop-color="#6E566E"/>
</linearGradient>
<linearGradient id="paint38_linear_109_108" x1="17.0068" y1="10.28" x2="16.6637" y2="9.09122" gradientUnits="userSpaceOnUse">
<stop stop-color="#8B788A" stop-opacity="0"/>
<stop offset="1" stop-color="#9E8C92"/>
</linearGradient>
<linearGradient id="paint39_linear_109_108" x1="17.2729" y1="10.5492" x2="18.0872" y2="8.45374" gradientUnits="userSpaceOnUse">
<stop stop-color="#555A66" stop-opacity="0"/>
<stop offset="1" stop-color="#555A66"/>
</linearGradient>
<linearGradient id="paint40_linear_109_108" x1="8.78532" y1="18.0987" x2="8.96172" y2="18.2751" gradientUnits="userSpaceOnUse">
<stop stop-color="#E5F3FF"/>
<stop offset="1" stop-color="#B3CCFF"/>
</linearGradient>
<linearGradient id="paint41_linear_109_108" x1="0" y1="11.7086" x2="22.2712" y2="11.7086" gradientUnits="userSpaceOnUse">
<stop stop-color="#FF7044"/>
<stop offset="1" stop-color="#F92814"/>
</linearGradient>
<linearGradient id="paint42_linear_109_108" x1="8.0619" y1="3.80083" x2="8.81641" y2="4.55529" gradientUnits="userSpaceOnUse">
<stop stop-color="#FF7044"/>
<stop offset="1" stop-color="#F92814"/>
</linearGradient>
<linearGradient id="paint43_linear_109_108" x1="4.17569" y1="8.63475" x2="4.99853" y2="9.45765" gradientUnits="userSpaceOnUse">
<stop stop-color="#92F37F"/>
<stop offset="1" stop-color="#4AB272"/>
</linearGradient>
<linearGradient id="paint44_linear_109_108" x1="22.7202" y1="10.2537" x2="23.9007" y2="11.4343" gradientUnits="userSpaceOnUse">
<stop stop-color="#92F37F"/>
<stop offset="1" stop-color="#4AB272"/>
</linearGradient>
<clipPath id="clip0_109_108">
<rect width="25" height="25" fill="white"/>
</clipPath>
</defs>
</svg>
